<?xml version="1.0" standalone="no"?>
<!DOCTYPE svg PUBLIC "-//W3C//DTD SVG 20010904//EN"
 "http://www.w3.org/TR/2001/REC-SVG-20010904/DTD/svg10.dtd">
<svg version="1.0" xmlns="http://www.w3.org/2000/svg"
 width="381.000000pt" height="381.000000pt" viewBox="0 0 381.000000 381.000000"
 preserveAspectRatio="xMidYMid meet">
<metadata>
Created by potrace 1.14, written by Peter Selinger 2001-2017
</metadata>
<g transform="translate(0.000000,381.000000) scale(0.100000,-0.100000)"
fill="#000000" stroke="none">
<path d="M2018 3739 c-30 -17 -22 -55 20 -89 l37 -31 -63 26 c-94 38 -258 75
-334 75 -55 0 -72 -4 -88 -20 -11 -11 -20 -25 -20 -31 0 -13 53 -66 90 -91 14
-9 -14 -1 -62 18 -204 81 -391 99 -430 40 -18 -26 -4 -53 64 -123 l73 -74 -62
30 c-33 17 -101 43 -149 57 -79 24 -106 28 -239 28 -131 1 -155 -2 -190 -19
-76 -38 -77 -86 -2 -163 l42 -43 -75 35 c-166 76 -296 91 -386 45 -117 -60
-186 -239 -155 -404 22 -117 77 -146 152 -78 31 28 40 33 36 18 -37 -119 -69
-361 -93 -715 -14 -219 -19 -254 -44 -327 -42 -119 -60 -229 -60 -362 0 -132
10 -204 44 -322 24 -81 24 -84 6 -106 -10 -13 -21 -46 -25 -73 -12 -88 9 -104
172 -130 42 -7 77 -18 86 -28 8 -9 22 -44 32 -77 23 -82 58 -148 122 -233 112
-147 287 -258 453 -288 136 -24 241 -8 385 61 185 89 339 263 394 447 12 40
28 84 34 98 26 52 162 62 228 17 25 -18 36 -37 54 -97 12 -41 31 -95 43 -120
11 -25 23 -75 27 -112 7 -65 6 -68 -22 -96 -45 -46 -155 -63 -276 -43 -37 6
-52 5 -63 -6 -33 -33 -7 -51 91 -63 77 -10 173 -2 229 19 48 19 96 71 102 112
4 21 8 39 11 39 2 0 17 -16 34 -35 43 -49 143 -121 220 -160 231 -117 483 -86
704 88 116 90 214 229 255 359 13 40 31 81 40 92 11 11 51 25 104 36 115 23
130 37 123 114 -4 40 -12 65 -25 79 -20 19 -20 20 4 73 45 102 66 202 71 337
6 152 -6 246 -49 367 l-30 85 -3 260 c-5 449 -59 734 -176 940 -52 92 -174
222 -268 285 -130 87 -325 160 -428 160 -44 0 -83 -25 -95 -60 -3 -11 -10 -10
-34 7 -38 26 -158 87 -226 113 -144 56 -362 87 -410 59z m974 -1577 c197 -98
285 -133 447 -178 68 -19 126 -35 127 -37 2 -2 -8 -36 -21 -75 -42 -124 -49
-189 -41 -407 3 -110 9 -233 12 -272 l7 -73 -51 0 c-49 0 -52 2 -81 44 -73
105 -204 184 -386 233 -89 23 -118 26 -260 26 -140 0 -172 -3 -260 -26 -177
-47 -295 -119 -393 -241 -19 -24 -28 -27 -55 -22 -70 13 -184 17 -222 9 -53
-13 -85 -1 -115 44 -78 114 -273 204 -504 233 -277 35 -590 -53 -723 -204 -21
-25 -50 -59 -65 -76 -26 -31 -30 -32 -80 -25 -29 4 -54 9 -56 10 -2 2 7 63 19
137 18 103 23 174 23 313 1 179 -5 223 -49 337 -4 10 35 13 187 13 153 0 209
4 273 19 132 31 269 83 466 177 102 49 199 89 214 89 l28 0 -8 -57 c-15 -101
-12 -131 17 -160 40 -39 87 -34 273 32 158 56 337 106 425 120 l45 7 -45 -29
c-55 -36 -73 -57 -68 -80 13 -67 231 -52 393 28 34 17 93 59 131 93 93 84 99
87 171 83 55 -3 82 -13 225 -85z m-1672 -832 c138 -34 237 -88 312 -169 34
-37 73 -74 86 -80 16 -9 54 -10 126 -5 70 4 120 3 154 -6 75 -17 105 -4 184
83 80 89 163 136 306 174 86 24 115 27 262 26 190 0 266 -15 406 -82 79 -38
89 -47 217 -183 l37 -41 63 6 c34 4 80 9 103 13 40 6 41 6 48 -27 8 -40 4 -43
-87 -59 -75 -13 -124 -36 -143 -67 -6 -10 -19 -45 -28 -78 -32 -110 -84 -193
-181 -291 -75 -76 -105 -99 -181 -136 -186 -93 -354 -89 -545 13 -153 82 -303
274 -339 435 -15 65 -37 94 -95 120 -36 17 -68 24 -116 24 -121 0 -179 -37
-205 -130 -41 -147 -106 -255 -218 -357 -151 -139 -345 -198 -525 -159 -125
26 -212 77 -322 186 -102 102 -146 172 -188 302 -25 75 -60 113 -114 123 -187
34 -172 28 -169 61 2 16 7 33 11 37 5 4 50 1 100 -8 90 -15 94 -15 134 5 27
13 54 39 76 70 70 104 211 179 404 216 103 19 317 11 427 -16z"/>
<path d="M1071 1688 c-177 -25 -471 -177 -471 -243 0 -43 25 -45 133 -8 243
82 472 81 719 -4 118 -40 139 -16 68 78 -75 100 -171 159 -290 178 -73 12 -70
12 -159 -1z"/>
<path d="M2520 1681 c-77 -24 -128 -59 -194 -132 -61 -68 -77 -103 -55 -124
12 -12 27 -10 95 15 126 44 225 62 359 62 140 1 210 -11 358 -59 86 -27 111
-32 123 -22 32 27 8 63 -86 126 -193 129 -442 185 -600 134z"/>
<path d="M891 1265 c-284 -64 -404 -183 -372 -367 36 -210 246 -424 458 -468
208 -44 441 70 577 282 73 114 97 257 57 343 -37 81 -143 153 -292 195 -98 29
-333 37 -428 15z m324 -70 c81 -21 191 -76 245 -124 l45 -39 -34 -66 c-136
-268 -507 -316 -718 -93 -50 53 -93 122 -93 151 0 40 162 139 280 170 73 19
201 20 275 1z m-591 -256 c32 -69 119 -163 187 -202 163 -95 373 -97 526 -5
69 42 155 130 191 197 35 62 47 54 33 -23 -31 -165 -188 -340 -358 -397 -53
-17 -82 -21 -153 -17 -78 4 -98 9 -166 43 -160 78 -290 251 -301 399 -3 36 -2
66 3 65 5 0 22 -27 38 -60z"/>
<path d="M1005 1162 c-23 -11 -53 -33 -68 -51 -99 -118 -13 -301 141 -301 76
0 146 47 171 113 17 44 13 118 -8 157 -43 81 -155 120 -236 82z"/>
<path d="M2587 1270 c-190 -32 -338 -119 -382 -222 -53 -128 19 -326 171 -467
184 -172 400 -207 608 -99 92 49 224 184 270 278 128 262 17 431 -329 505 -75
16 -257 18 -338 5z m287 -80 c91 -23 180 -68 241 -122 l45 -39 -29 -57 c-17
-33 -55 -82 -90 -115 -173 -166 -429 -166 -602 0 -35 33 -73 82 -90 115 l-29
57 48 42 c89 79 244 136 373 138 31 1 91 -8 133 -19z m361 -270 c-15 -140
-148 -311 -299 -385 -68 -34 -88 -39 -166 -43 -113 -6 -178 14 -280 83 -82 56
-152 135 -194 220 -30 63 -52 155 -42 182 6 14 13 7 34 -35 136 -264 478 -356
728 -194 89 58 163 148 195 235 13 36 14 36 22 15 5 -13 6 -48 2 -78z"/>
<path d="M2704 1170 c-55 -12 -101 -48 -124 -96 -46 -93 -8 -203 84 -245 157
-71 312 90 236 246 -34 70 -121 112 -196 95z"/>
<path d="M1553 269 c-102 -32 -217 -125 -192 -155 15 -19 97 -42 188 -53 89
-11 169 0 243 34 73 34 142 33 227 -2 61 -26 76 -28 191 -27 133 2 216 18 234
46 15 24 -53 102 -124 142 l-55 31 -329 0 c-277 0 -338 -3 -383 -16z"/>
</g>
</svg>
