<?xml version="1.0" encoding="UTF-8"?><svg id="Layer_1" xmlns="http://www.w3.org/2000/svg" viewBox="0 0 100 100"><defs><style></style></defs><path d="M80,99.74H20C9.12,99.74,.26,90.88,.26,80V20C.26,9.12,9.12,.26,20,.26h60c10.88,0,19.74,8.85,19.74,19.74v60c0,10.88-8.85,19.74-19.74,19.74ZM20,9.74c-5.66,0-10.26,4.6-10.26,10.26v60c0,5.66,4.6,10.26,10.26,10.26h60c5.66,0,10.26-4.6,10.26-10.26V20c0-5.66-4.6-10.26-10.26-10.26H20Z"/><path d="M50,23.24c-15.15,0-27.44,12.28-27.44,27.44,0,12.12,7.86,22.41,18.77,26.04,1.37,.25,1.87-.6,1.87-1.32,0-.65-.02-2.38-.04-4.67-7.63,1.66-9.24-3.68-9.24-3.68-1.25-3.17-3.05-4.01-3.05-4.01-2.49-1.7,.19-1.67,.19-1.67,2.75,.19,4.2,2.83,4.2,2.83,2.45,4.19,6.42,2.98,7.99,2.28,.25-1.77,.96-2.98,1.74-3.67-6.09-.69-12.5-3.05-12.5-13.56,0-3,1.07-5.44,2.82-7.36-.28-.69-1.22-3.48,.27-7.26,0,0,2.3-.74,7.55,2.81,2.19-.61,4.54-.91,6.87-.92,2.33,.01,4.68,.31,6.87,.92,5.24-3.55,7.54-2.81,7.54-2.81,1.5,3.78,.56,6.57,.27,7.26,1.76,1.92,2.82,4.37,2.82,7.36,0,10.54-6.42,12.86-12.53,13.54,.99,.85,1.86,2.52,1.86,5.08,0,3.67-.03,6.63-.03,7.53,0,.73,.49,1.59,1.89,1.32,10.89-3.64,18.75-13.91,18.75-26.03,0-15.16-12.29-27.44-27.44-27.44Z"/></svg>