<?xml version="1.0" encoding="UTF-8"?><svg id="Layer_1" xmlns="http://www.w3.org/2000/svg" viewBox="0 0 100 100"><path d="M80,99.74H20C9.12,99.74,.26,90.88,.26,80V20C.26,9.12,9.12,.26,20,.26h60c10.88,0,19.74,8.85,19.74,19.74v60c0,10.88-8.85,19.74-19.74,19.74ZM20,9.74c-5.66,0-10.26,4.6-10.26,10.26v60c0,5.66,4.6,10.26,10.26,10.26h60c5.66,0,10.26-4.6,10.26-10.26V20c0-5.66-4.6-10.26-10.26-10.26H20Z"/><path d="M50,76.76c-14.76,0-26.76-12.01-26.76-26.76s12.01-26.76,26.76-26.76,26.76,12.01,26.76,26.76-12.01,26.76-26.76,26.76Zm0-44.05c-9.53,0-17.29,7.76-17.29,17.29s7.76,17.29,17.29,17.29,17.29-7.75,17.29-17.29-7.75-17.29-17.29-17.29Z"/><circle cx="77.95" cy="22.05" r="7.11"/></svg>