<?xml version="1.0" encoding="UTF-8"?><svg id="Layer_1" xmlns="http://www.w3.org/2000/svg" viewBox="0 0 100 100"><path d="M80,99.74H20C9.12,99.74,.26,90.88,.26,80V20C.26,9.12,9.12,.26,20,.26h60c10.88,0,19.74,8.85,19.74,19.74v60c0,10.88-8.85,19.74-19.74,19.74ZM20,9.74c-5.66,0-10.26,4.6-10.26,10.26v60c0,5.66,4.6,10.26,10.26,10.26h60c5.66,0,10.26-4.6,10.26-10.26V20c0-5.66-4.6-10.26-10.26-10.26H20Z"/><g><path d="M24.77,28.72c0-3.16,2.5-5.38,5.96-5.38s5.96,2.22,5.96,5.38-2.5,5.38-5.96,5.38-5.96-2.25-5.96-5.38Zm.8,10.46h10.29v34.73h-10.29V39.18Z"/><path d="M44.88,39.18h8.4l.74,4.4h.26c2.92-2.81,6.42-5.24,11.16-5.24,7.55,0,10.77,5.33,10.77,14.01v21.56h-10.29v-20.24c0-5-1.34-6.56-4.31-6.56-2.59,0-4.17,1.2-6.43,3.38v23.43h-10.29V39.18Z"/></g></svg>