<?xml version="1.0" encoding="UTF-8"?><svg id="Layer_1" xmlns="http://www.w3.org/2000/svg" viewBox="0 0 100 100"><path d="M80,99.74H20C9.12,99.74,.26,90.88,.26,80V20C.26,9.12,9.12,.26,20,.26h60c10.88,0,19.74,8.85,19.74,19.74v60c0,10.88-8.85,19.74-19.74,19.74ZM20,9.74c-5.66,0-10.26,4.6-10.26,10.26v60c0,5.66,4.6,10.26,10.26,10.26h60c5.66,0,10.26-4.6,10.26-10.26V20c0-5.66-4.6-10.26-10.26-10.26H20Z"/><g><path d="M33.14,74.17s0,0,0,0c0,0,0,0-.01-.01,0,0,.01,.02,.01,.02Z"/><path d="M33.8,74.76s0,0,0-.01c0,0,0,0,0,0,0,0,0,.01,0,.01Z"/><path d="M33.89,74.85s0,0,0-.01c0,0,0,0-.01,0,0,0,.01,.01,.01,.01Z"/><polygon points="39.55 67.01 39.55 67.01 39.56 67.02 39.55 67.01"/><path d="M74.03,38.25c0-.16,.02-.33,.03-.49-.02-.03-.04-.05-.06-.08,.08-.55,0-1.11,.04-1.66,.03-.34-.11-.42-.43-.43-1.91-.08-3.73-.5-5.44-1.37-.33-.17-.62-.41-1-.5,0,0,0,0,0,0h0s0,0,0,0c-.09,.02-.12-.05-.15-.11,0,0,0,0,0,0h-.04s0-.04,0-.04c-.09-.08-.19-.15-.28-.23-2.94-1.9-4.97-5.05-5.59-8.49-.02-.02-.03-.04-.04-.06-.04-.61-.2-1.22-.17-1.83,.02-.39-.09-.53-.52-.53-2.82,.02-5.64,.02-8.46,0-.45,0-.57,.11-.57,.56,.01,12.3,.01,24.6,.01,36.9,.2,6-6.15,9.92-11.49,7.39-.07-.07-.15-.13-.22-.2-.05,0-.09-.02-.09-.08-.68-.27-1.23-.73-1.72-1.25-4.62-4.49-2.09-12.45,4.26-13.48,1.06-.21,2.12-.15,3.16,.12,.51,.13,.51,.13,.51-.41,.02-2.29-.03-4.59,.02-6.88-.02-.02-.03-.04-.04-.06,0-.64,0-1.29,.03-1.93,0-.24-.1-.3-.32-.32-.98-.1-1.97-.15-2.96-.1-9.68,.31-17.55,9.39-16.44,19.02,.43,4.93,2.88,9.45,6.93,12.33,0,0,0,0,0,0,.1-.03,.13,.05,.16,.12,.03,.03,.05,.05,.08,.08,0,0,0,0,0,0,.04,0,.07,0,.05,.05,.13,.11,.27,.23,.4,.34,.06,.01,.11,.04,.11,.11,.07,0,.11,.01,.1,.08,11.17,7.01,25.99-.17,26.91-13.47,.2-6.76-.1-13.63,.11-20.35,.12-.07,.21,.07,.31,.13,3.65,2.49,7.9,3.87,12.32,3.95,.41,0,.5-.12,.49-.51-.02-2.11,0-4.23,0-6.34Z"/></g></svg>