<?xml version="1.0" encoding="UTF-8"?><svg id="Layer_1" xmlns="http://www.w3.org/2000/svg" viewBox="0 0 100 100"><path d="M80,99.74H20C9.12,99.74,.26,90.88,.26,80V20C.26,9.12,9.12,.26,20,.26h60c10.88,0,19.74,8.85,19.74,19.74v60c0,10.88-8.85,19.74-19.74,19.74ZM20,9.74c-5.66,0-10.26,4.6-10.26,10.26v60c0,5.66,4.6,10.26,10.26,10.26h60c5.66,0,10.26-4.6,10.26-10.26V20c0-5.66-4.6-10.26-10.26-10.26H20Z"/><path d="M34.16,76.08c-1.38,0-2.77-.36-4-1.07-2.47-1.42-4-4.08-4-6.93V31.91c0-2.85,1.53-5.5,4-6.93,2.47-1.42,5.53-1.42,8,0l31.33,18.09c2.77,1.6,4.36,4.12,4.36,6.93s-1.59,5.33-4.36,6.93l-31.33,18.09c-1.23,.71-2.62,1.07-4,1.07Zm2-40.71v29.25l25.33-14.62-25.33-14.62Z"/></svg>