<?xml version="1.0" encoding="UTF-8"?><svg id="Layer_1" xmlns="http://www.w3.org/2000/svg" viewBox="0 0 790 100"><defs><style>.cls-baptist{fill:none;}</style></defs><path d="M782.13,85.52c0,5.1-4.01,9.11-9.22,9.11s-9.27-4-9.27-9.11,4.11-9,9.27-9,9.22,4,9.22,9Zm-16.18,0c0,4,2.96,7.18,7.02,7.18s6.86-3.18,6.86-7.13-2.91-7.24-6.91-7.24-6.97,3.24-6.97,7.18Zm5.54,4.72h-2.09v-9c.82-.16,1.97-.27,3.46-.27,1.7,0,2.47,.27,3.13,.66,.49,.38,.88,1.1,.88,1.98,0,.99-.77,1.76-1.86,2.08v.11c.88,.33,1.37,.99,1.64,2.2,.28,1.37,.44,1.92,.66,2.25h-2.25c-.28-.33-.44-1.15-.71-2.19-.16-.99-.71-1.43-1.86-1.43h-.99v3.62Zm.05-5.1h.99c1.15,0,2.08-.38,2.08-1.32,0-.82-.6-1.37-1.92-1.37-.55,0-.93,.05-1.15,.11v2.58Z"/><g><path d="M163.11,13.28c-1.12-4.73,2.04-4.41,4.47-4.45,15.06-.28,30.12-.53,45.19-.6,4.36-.02,8.59,1.13,12.64,2.78,15.1,6.15,18.03,19.4,7.57,34.15,.24,.41,.39,.96,.75,1.19,9.5,5.89,15.18,14.05,12.73,25.42-2.52,11.71-11.68,17.03-22.69,18.64-20,2.92-40.19,1.08-60.21,1.95-1.59-4.08,.09-4.99,3.25-5.06,8.3-.19,12.01-5.22,12.15-12.75,.3-16.25,.52-32.52,.02-48.77-.28-9.14-2.49-10.35-15.87-12.5Zm33.59,38.58c1.32,10.67-1.65,20.54,2.39,29.56,6.58,2.37,11.83,2.83,17,1.68,8.08-1.79,12.82-8.2,12.32-16.65-.5-8.47-5.94-14.1-14.5-14.55-5.28-.28-10.59-.05-17.21-.05Zm.74-35.59v26.9c8.08-.15,16.6,2.72,21.68-5.96,3.05-5.21,2.77-10.87-.69-15.81-5.36-7.63-13.29-5.39-20.99-5.12Z"/><path d="M407.78,91.44h-45.24c-1.11-2.55-1.59-4.81,1.83-5.28,7.09-.98,9.28-6.02,9.39-11.93,.29-16.24,.25-32.48,.05-48.72-.09-7.33-3.71-11.92-11.62-12.3-2.4-.11-5.61,.31-4.12-5.07,8.72,0,17.76-.16,26.8,.04,9.92,.23,19.89-1.05,29.74,1.16,13.68,3.07,21.87,11.41,22.09,22.62,.23,11.43-8.02,20.2-22.01,23.53-5.5,1.31-11.03,1.64-16.72,1.11-1.61-2.38-1.15-4.75-.44-7.13,15.92-1.83,22.07-7.57,20.74-19.24-1.29-11.28-8.26-15.19-25.14-13.98-2.11,2.89-.99,6.29-1,9.44-.09,15.73-.2,31.47,.17,47.2,.23,9.99,2.2,11.89,11.86,13.39,2.8,.44,5.3,.55,3.61,5.14Z"/><path d="M352.31,91.18h-45.48c2.11-7.84,10.84-2.74,14.05-9.99,1.21-5.18-3.72-10.27-6.15-16.34h-32.5c-2.92,5.82-6.76,11.25-6.68,16.79,3.09,7.02,11.54,1.81,14.72,9.26h-41.25c-1.59-3.02-.12-4.45,3.16-4.5,8.17-.12,12.1-5.34,15.23-11.9,10.37-21.76,20.87-43.45,31.33-65.17,.65-1.35,1.4-2.65,1.98-3.73,4.9-1.98,6,1.42,7.44,4.45,9.57,20.18,19.13,40.36,28.78,60.49,3.16,6.59,5.67,13.78,14.2,15.75,2.3,.53,1.7,2.72,1.16,4.89Zm-66.13-34.76h24.44c-4.15-8.71-7.98-16.73-12.24-25.67-4.26,8.95-8.01,16.86-12.2,25.67Z"/><path d="M661.9,11.03c2.96-1.95,2.41-8.07,8.18-5.3v27.75c-1.63,1.73-3.27,.85-5.11,.62-2.51-9.99-6.5-18.49-17.83-20.59-2.55-.47-5.03-.56-7.57,.04-4.72,1.11-8.77,3.04-9.77,8.33-.95,5.01,1.9,8.46,5.78,10.64,6.86,3.86,14.06,7.12,21.07,10.72,3.62,1.86,7.39,3.55,10.64,5.94,14.96,10.97,14.15,30.94-1.74,40.56-11.06,6.69-22.67,6.89-34.32,1.25-2.46-1.19-4.8-2.62-6.86-3.76-4.12,1.48-2.08,9.05-9.5,7.04V60.87c5.42-2.42,5.52,1.15,6.47,4.42,4.02,13.85,15.36,21.92,29.03,20.89,6.08-.46,10.95-2.89,12.75-9.08,1.68-5.78-1.68-9.74-5.88-12.96-6.11-4.69-13.41-7.22-20.26-10.57-2.74-1.34-5.56-2.56-8.15-4.14-10.74-6.53-15.87-16.94-13.3-26.65,2.67-10.05,12.77-17.18,25.05-17.67,7.68-.3,12.65,1.05,21.32,5.91Z"/><path d="M720.12,16.43c-8.04-.96-15.27-.45-22.62,.72-8.57,1.37-6.12,11.89-13.33,15.6-1.04-8.77,.67-16.17,1.27-24.12h87.01c.6,7.56,1.21,15.19,1.8,22.6-4.14,1.37-4.92-.95-5.31-3.28-1.52-9.21-8.16-11.55-16.13-11.93-4.78-.23-9.58-.04-14.74-.04,0,20.06-.18,39.52,.1,58.97,.1,7.03,3.97,11.29,11.56,11.41,2.55,.04,5.5,.02,4.15,4.71h-49.6c-.67-1.37-.7-2.58-.07-3.8,14.52-3.19,15.87-4.82,15.91-19.74,.04-16.96,.01-33.92,.01-51.12Z"/><path d="M484.08,16.17c-7.6-.48-14.82-.33-22.17,.93-8.53,1.47-6.79,11.4-11.88,15.54-.77-.36-1.54-.72-2.31-1.07,.58-7.58,1.17-15.16,1.78-23.06h87.05c.61,7.85,2.02,15.31,1.43,22.81-3.52,1.19-4.35-.76-4.79-3.28-1.5-8.56-7.44-11.62-15.33-11.94-5.04-.21-10.1-.04-16.1-.04,.58,20.69-1.07,40.9,1.01,61.1,.63,6.08,4.53,8.66,10.36,9.15,2.51,.21,6.24-.52,4.86,4.82h-49.59c-1.61-4.23,.94-4.71,3.74-4.74,8.02-.09,11.75-4.8,11.86-12.04,.29-19.22,.1-38.46,.1-58.16Z"/><path class="cls-baptist" d="M72.25,7.71c16.33,0,32.67-.07,49,.03,9.82,.06,15.19,5.27,15.27,15,.14,18.03,.13,36.06,0,54.09-.07,9.75-5.43,15.15-15.15,15.18-32.67,.09-65.34,.08-98.01,0-10.18-.02-15.41-5.38-15.45-15.6-.06-18.03-.07-36.06,0-54.09,.04-9.68,4.78-14.49,14.56-14.57,16.59-.14,33.18-.04,49.77-.04Zm.04,5.19c-15.55,0-31.11-.03-46.66,.01-9.75,.02-11.91,2.07-11.94,11.4-.05,17-.05,34,0,50.99,.03,8.32,2.89,11.87,11.24,11.94,30.85,.25,61.72,.7,92.55-.21,11.62-.34,13.4-2.02,13.22-13.58-.25-16.23-.03-32.47-.07-48.71-.02-9.34-2.42-11.79-11.67-11.82-15.55-.05-31.11-.01-46.66-.02Z"/><path d="M549.03,12.93c-.85-3.64,0-4.83,2.8-4.82,15.29,.06,30.59,.03,45.63,.03,.77,1.76,1,2.97,.26,4.19-14.59,3.12-15.56,4.32-15.58,19.81-.02,13.21-.17,26.43,.1,39.64,.22,10.62,1.8,12.2,12.38,14.62q2.3,.53,3.25,4.8h-48.46c-1.13-1.25-.97-2.46-.48-3.76,1.63-1.55,3.82-1.02,5.76-1.24,6.04-.66,9.28-4.05,9.64-9.91,1.06-17.51,.95-35.03,.08-52.55-.49-9.84-8.01-10.41-15.4-10.81Z"/><path d="M72.29,12.9c15.55,0,31.11-.04,46.66,.02,9.25,.03,11.65,2.48,11.67,11.82,.04,16.24-.17,32.48,.07,48.71,.18,11.56-1.6,13.24-13.22,13.58-30.83,.91-61.7,.46-92.55,.21-8.35-.07-11.21-3.62-11.24-11.94-.05-17-.05-34,0-50.99,.03-9.33,2.19-11.38,11.94-11.4,15.55-.04,31.11-.01,46.66,0ZM23.22,64.82c25.04,18.08,76.35,17.78,96.87-.83-10.7-20.83-26.69-36.08-48.17-45.34-21.09,7.85-41.88,27.63-48.7,46.16Z"/><path class="cls-baptist" d="M23.22,64.82c6.82-18.53,27.61-38.32,48.7-46.16,21.49,9.26,37.47,24.5,48.17,45.34-20.52,18.61-71.83,18.91-96.87,.83ZM71.73,27.74c-16.53,7.22-32.88,22.55-36.65,34.78,24.5,9.39,48.69,9.88,73.3-.45-7.39-17.62-21.41-26.72-36.66-34.33Z"/><path d="M71.73,27.74c15.24,7.6,29.26,16.7,36.66,34.33-24.61,10.33-48.81,9.84-73.3,.45,3.77-12.23,20.12-27.56,36.65-34.78Z"/></g></svg>