<?xml version="1.0" encoding="UTF-8"?><svg id="Layer_1" xmlns="http://www.w3.org/2000/svg" viewBox="0 0 100 100"><path d="M55.71,35.29c.24,.22,.61,.33,1.1,.33s.87-.11,1.11-.33c.24-.22,.4-.51,.48-.89,.08-.38,.12-.79,.12-1.24v-7.58c0-.46-.04-.87-.12-1.24-.08-.37-.24-.65-.48-.86-.24-.21-.61-.32-1.11-.32-.47,0-.83,.11-1.08,.32-.24,.21-.41,.5-.49,.86s-.12,.78-.12,1.24v7.58c0,.45,.04,.86,.11,1.24s.23,.68,.48,.89Z"/><path d="M47.94,35.29c.24-.22,.4-.51,.48-.89,.08-.38,.12-.79,.12-1.24v-7.58c0-.46-.04-.87-.12-1.24-.08-.37-.24-.65-.48-.86-.24-.21-.61-.32-1.11-.32-.47,0-.83,.11-1.08,.32-.24,.21-.41,.5-.49,.86s-.12,.78-.12,1.24v7.58c0,.45,.04,.86,.11,1.24s.23,.68,.48,.89c.24,.22,.61,.33,1.1,.33s.87-.11,1.11-.33Z"/><path d="M56.7,46.43c-.47-.59-1.21-.89-2.21-.89s-1.74,.3-2.21,.89c-.47,.6-.78,1.32-.92,2.19-.14,.86-.21,1.73-.21,2.61v16.69c0,.82,.09,1.64,.26,2.49,.17,.85,.49,1.57,.96,2.16,.47,.6,1.18,.89,2.12,.89s1.69-.3,2.16-.89c.47-.6,.78-1.32,.94-2.16,.16-.85,.24-1.68,.24-2.49v-16.69c0-.88-.07-1.75-.21-2.61-.14-.86-.45-1.59-.92-2.19Z"/><path d="M34.82,45.79c-.49-.55-1.18-.82-2.09-.82s-1.56,.28-2.04,.85c-.49,.56-.82,1.35-1.01,2.35-.19,1-.28,2.18-.28,3.53s.05,2.57,.16,3.67c.11,1.1,.4,1.97,.87,2.61,.47,.64,1.25,.96,2.35,.96,.88,0,1.57-.22,2.09-.66,.52-.44,.93-.91,1.25-1.41v-5.92c0-1.1-.09-2.09-.28-2.98-.19-.89-.53-1.61-1.01-2.16Z"/><path d="M50,2.5C23.77,2.5,2.5,23.77,2.5,50s21.27,47.5,47.5,47.5,47.5-21.27,47.5-47.5S76.23,2.5,50,2.5Zm17.22,29.7c-.33-.46-.76-.92-1.3-1.38l-2.07-1.83c-.58-.5-1.05-1.06-1.39-1.68-.35-.62-.52-1.38-.52-2.29,0-1.3,.38-2.3,1.14-3.01,.76-.7,1.8-1.06,3.11-1.06,.77,0,1.42,.12,1.93,.36,.51,.24,.93,.57,1.23,.99s.53,.9,.68,1.43c.15,.54,.24,1.1,.28,1.7l-2.56,.45c-.03-.51-.08-.98-.17-1.38-.09-.41-.24-.73-.47-.96-.22-.23-.55-.35-.99-.35s-.79,.15-1.03,.44c-.24,.29-.36,.65-.36,1.09,0,.56,.11,1.01,.35,1.37,.23,.36,.56,.73,1,1.11l2.05,1.81c.68,.57,1.26,1.24,1.74,2,.48,.77,.72,1.69,.72,2.78,0,.79-.17,1.48-.52,2.09-.35,.61-.83,1.09-1.44,1.43s-1.34,.52-2.17,.52c-.99,0-1.82-.19-2.48-.58s-1.17-.95-1.5-1.7c-.34-.75-.53-1.66-.57-2.75l2.58-.51c.03,.64,.1,1.2,.23,1.69,.13,.49,.33,.86,.59,1.13s.61,.4,1.05,.4c.49,0,.83-.15,1.04-.44,.2-.29,.31-.66,.31-1.11,0-.72-.16-1.31-.49-1.77Zm-15.13-5.94c0-1.11,.15-2.06,.45-2.86,.3-.79,.79-1.4,1.48-1.82,.69-.42,1.62-.63,2.79-.63s2.13,.21,2.82,.63c.68,.42,1.18,1.03,1.48,1.82,.3,.79,.46,1.75,.46,2.86v6.18c0,1.1-.15,2.05-.46,2.86-.31,.81-.8,1.43-1.48,1.87-.68,.44-1.62,.66-2.82,.66s-2.09-.22-2.79-.65-1.19-1.06-1.48-1.87c-.3-.81-.45-1.78-.45-2.89v-6.16Zm-20.15-5.12h2.99v6.89h3.36v-6.89h3.01v16.47h-3.01v-7.44h-3.36v7.44h-2.99V21.14Zm-9.8,11.2v-5.88c0-1.12,.14-2.1,.41-2.93s.75-1.46,1.43-1.91c.68-.45,1.63-.67,2.84-.67,1.14,0,2.03,.19,2.67,.58s1.1,.94,1.37,1.66c.27,.72,.41,1.55,.41,2.5v1.38h-2.89v-1.42c0-.46-.02-.88-.07-1.26-.05-.38-.18-.68-.39-.9-.21-.22-.57-.34-1.09-.34s-.89,.12-1.13,.36-.39,.56-.46,.96c-.07,.4-.1,.85-.1,1.35v7.16c0,.6,.05,1.09,.14,1.47,.09,.39,.27,.68,.52,.87,.25,.2,.59,.29,1.03,.29,.5,0,.86-.12,1.07-.36,.21-.24,.34-.55,.4-.95,.05-.39,.08-.83,.08-1.32v-1.48h2.89v1.32c0,.98-.13,1.84-.39,2.59s-.71,1.34-1.35,1.77c-.64,.43-1.55,.64-2.71,.64s-2.15-.24-2.84-.71c-.68-.47-1.16-1.12-1.43-1.94s-.41-1.77-.41-2.84Zm20.55,33.4c0,2.48-.29,4.72-.87,6.72-.58,2.01-1.58,3.6-3.01,4.77-1.43,1.17-3.45,1.76-6.09,1.76-2.19,0-3.99-.38-5.4-1.13s-2.44-1.85-3.1-3.29c-.66-1.44-.99-3.2-.99-5.26v-.52h6.2c0,1.69,.21,2.96,.63,3.81,.42,.85,1.32,1.27,2.7,1.27,.85,0,1.5-.25,1.97-.75,.47-.5,.81-1.33,1.03-2.49,.22-1.16,.33-2.68,.33-4.56v-4.56c-.44,.72-1.1,1.29-1.97,1.69-.88,.41-1.93,.63-3.15,.66-2.04,.03-3.66-.45-4.86-1.43-1.21-.99-2.07-2.33-2.58-4.02s-.78-3.6-.78-5.73c0-2.51,.33-4.71,.99-6.6,.66-1.9,1.72-3.38,3.2-4.46,1.47-1.08,3.4-1.62,5.78-1.62s4.26,.53,5.73,1.57c1.47,1.05,2.55,2.5,3.22,4.35,.67,1.85,1.01,3.96,1.01,6.35v13.49Zm-.13-30.43c-.3-.81-.45-1.78-.45-2.89v-6.16c0-1.11,.15-2.06,.45-2.86,.3-.79,.79-1.4,1.48-1.82,.69-.42,1.62-.63,2.79-.63s2.13,.21,2.82,.63c.68,.42,1.18,1.03,1.48,1.82,.3,.79,.46,1.75,.46,2.86v6.18c0,1.1-.15,2.05-.46,2.86-.31,.81-.8,1.43-1.48,1.87-.68,.44-1.62,.66-2.82,.66s-2.09-.22-2.79-.65-1.19-1.06-1.48-1.87Zm21.85,32.69c0,2.16-.37,4.07-1.1,5.73-.74,1.66-1.83,2.96-3.29,3.9s-3.3,1.41-5.52,1.41-4.07-.47-5.52-1.41c-1.46-.94-2.55-2.24-3.29-3.9-.74-1.66-1.1-3.57-1.1-5.73v-16.87c0-2.22,.35-4.18,1.06-5.85,.71-1.68,1.79-2.98,3.24-3.92,1.46-.94,3.33-1.41,5.62-1.41s4.16,.47,5.62,1.41c1.46,.94,2.54,2.25,3.24,3.92,.71,1.68,1.06,3.63,1.06,5.85v16.87Zm12.83,10.48h-6.49v-30.88c-.19,.09-.56,.24-1.1,.42-.55,.19-1.15,.37-1.81,.54-.66,.17-1.26,.34-1.81,.49-.55,.16-.93,.28-1.15,.38v-4.84c.44-.16,.99-.38,1.64-.66,.66-.28,1.36-.6,2.09-.96,.74-.36,1.43-.76,2.07-1.2,.64-.44,1.17-.89,1.57-1.36h4.98v38.07Zm.62-40.87h-6.95V21.14h6.91v2.11h-3.9v4.74h3.07v2.09h-3.07v5.45h3.94v2.07Z"/></svg>