<?xml version="1.0" encoding="UTF-8"?><svg id="Layer_1" xmlns="http://www.w3.org/2000/svg" viewBox="0 0 275 100"><g><path d="M24.72,41.73h.15L30.27,5.44h11.17V56.55h-7.59V19.9h-.15l-5.4,36.66h-7.59L14.86,20.41h-.15V56.55H7.7V5.44h11.17l5.84,36.29Z"/><path d="M55.31,26.98h11.03v7.3h-11.03v14.97h13.87v7.3h-21.91V5.44h21.91v7.3h-13.87v14.24Z"/><path d="M82.18,26.98h11.03v7.3h-11.03v14.97h13.87v7.3h-21.91V5.44h21.91v7.3h-13.87v14.24Z"/><path d="M117.96,41.73h.15l5.4-36.29h11.17V56.55h-7.59V19.9h-.15l-5.4,36.66h-7.59l-5.84-36.14h-.15V56.55h-7.01V5.44h11.17l5.84,36.29Z"/><path d="M166.52,56.55h-8.11l-1.39-9.27h-9.86l-1.39,9.27h-7.37l8.18-51.11h11.76l8.18,51.11Zm-18.33-16.21h7.74l-3.8-25.85h-.15l-3.8,25.85Z"/><path d="M177.54,19.53h-.15V56.55h-7.23V5.44h10.08l8.11,30.6h.15V5.44h7.16V56.55h-8.25l-9.86-37.02Z"/></g><g><path d="M224.66,18v25.92c0,7.08-2.92,13-10.73,13s-10.73-5.7-10.73-12.78v-.29h.73v.29c0,6.64,2.7,12.05,10,12.05s10-5.62,10-12.27v-15.85c-1.46,4.75-4.89,7.37-10,7.37-7.81,0-10.73-5.91-10.73-12.92v-4.53c0-7.08,2.92-13,10.73-13s10.73,5.91,10.73,13Zm-20.74,0v4.53c0,6.57,2.63,12.19,10,12.19s10-5.62,10-12.19v-4.53c0-6.65-2.63-12.27-10-12.27s-10,5.62-10,12.27Z"/><path d="M230.5,18c0-7.08,2.92-12.92,10.73-12.92s10.66,5.84,10.66,12.92v25.92c0,7.08-2.92,13-10.66,13s-10.73-5.91-10.73-13V18Zm.73,25.92c0,6.65,2.63,12.27,10,12.27s9.93-5.62,9.93-12.27V18c0-6.65-2.56-12.27-9.93-12.27s-10,5.62-10,12.27v25.92Z"/><path d="M266.57,6.68c-1.61,3.8-4.67,6.43-8.84,6.94v-.73c4.31-.51,7.16-3.51,8.54-7.52h1.02V56.55h-.73V6.68Z"/></g><g><path d="M19.38,76.47v.45h-.76v-.48c0-2.87-1.07-5.29-4.22-5.29s-4.25,2.39-4.25,5.25c0,6.19,9.27,6.02,9.27,12.58,0,3.35-1.38,6.02-5.08,6.02s-5.05-2.66-5.05-6.02v-1.18h.73v1.21c0,2.94,1.14,5.25,4.32,5.25s4.32-2.32,4.32-5.25c0-6.12-9.27-5.91-9.27-12.58,0-3.53,1.49-5.95,4.98-5.98,3.66,0,5.01,2.7,5.01,6.02Z"/><path d="M42.71,94.83v-23.47h-5.25v-.73h11.3v.73h-5.29v23.47h-.76Z"/><path d="M71.75,70.63c3.6,0,4.98,2.11,4.98,5.43v2.18c0,2.97-1.18,4.6-3.84,5.08,2.7,.42,3.84,2.18,3.84,4.84v3.8c0,.93,.1,2.11,.66,2.87h-.83c-.48-.76-.59-1.83-.59-2.87v-3.8c0-3.56-2.14-4.49-5.29-4.49h-2.97v11.17h-.76v-24.2h4.81Zm-1.07,12.31c3.35,0,5.29-.86,5.29-4.6v-2.21c0-2.94-1.14-4.77-4.25-4.77h-4.01v11.58h2.97Z"/><path d="M98.16,89.12l-1.42,5.7h-.69l5.84-24.23h1.07l5.98,24.23h-.76l-1.42-5.7h-8.61Zm.14-.69h8.33l-4.22-16.94-4.11,16.94Z"/><path d="M132.21,94.83v-23.47h-5.25v-.73h11.3v.73h-5.29v23.47h-.76Z"/><path d="M164.33,82.21v.69h-7.12v11.2h8.47v.73h-9.23v-24.2h9.23v.73h-8.47v10.86h7.12Z"/><path d="M194.54,76.57v1.59h-.76v-1.62c0-2.94-1.11-5.39-4.29-5.39s-4.32,2.45-4.32,5.39v12.38c0,2.94,1.11,5.36,4.32,5.36s4.29-2.42,4.29-5.36v-5.5h-3.77v-.69h4.53v6.15c0,3.35-1.38,6.12-5.08,6.12s-5.05-2.77-5.05-6.12v-12.31c0-3.35,1.38-6.12,5.05-6.12s5.08,2.77,5.08,6.12Z"/><path d="M214.1,70.63v24.2h-.76v-24.2h.76Z"/><path d="M240.82,82.21v.69h-7.12v11.2h8.47v.73h-9.23v-24.2h9.23v.73h-8.47v10.86h7.12Z"/><path d="M265.61,76.47v.45h-.76v-.48c0-2.87-1.07-5.29-4.22-5.29s-4.25,2.39-4.25,5.25c0,6.19,9.27,6.02,9.27,12.58,0,3.35-1.38,6.02-5.08,6.02s-5.05-2.66-5.05-6.02v-1.18h.73v1.21c0,2.94,1.14,5.25,4.32,5.25s4.32-2.32,4.32-5.25c0-6.12-9.27-5.91-9.27-12.58,0-3.53,1.49-5.95,4.98-5.98,3.66,0,5.01,2.7,5.01,6.02Z"/></g></svg>