<svg viewBox="0 0 200 31.6129513" version="1.1" xmlns="http://www.w3.org/2000/svg" xmlns:xlink="http://www.w3.org/1999/xlink">
    <g id="Page-1" stroke="none" stroke-width="1" fill="none" fill-rule="evenodd">
        <g id="2023-05-09_neonCanvas_websiteDesigns(SELECTED)@2x" transform="translate(-120.000000, -49.000000)" fill="#ffffff" fill-rule="nonzero">
            <g id="Fill-1-2" transform="translate(120.000000, 49.000000)">
                <path d="M30.5946264,0 L31.0691326,0.183015613 C31.4896912,0.599803717 31.33713,0.382273606 31.3629436,0.733512268 L31.3684543,0.798191078 L31.3684543,30.8143613 C31.3263984,31.4442416 30.527047,31.868484 30.0061343,31.4047093 L15.6842271,16.9666699 L1.3845661,31.3851026 C1.20796045,31.5390848 1.14655888,31.5584595 1.01108097,31.5917561 C0.547596357,31.705684 0.0283079554,31.3468171 0.00153724907,30.8394498 L0,30.8120699 C0,20.8068342 0.316666171,10.7965814 0,0.796451301 C0,0.796451301 0.0676664684,0.253205204 0.467139108,0.0800513011 L0.802541933,0.000579925651 C10.7332367,0.000579925651 20.6729518,0.423168773 30.5946264,0 Z M1.63205762,28.8180996 L14.5352029,15.8081903 L5.48872543,6.68650558 L1.63205762,2.79802007 C1.63205762,11.4713896 1.63205762,20.1447301 1.63205762,28.8180996 Z M25.4179845,7.15202007 L20.9736078,11.633174 L16.8332514,15.8081903 L29.7361067,28.8180996 L29.7361067,2.79804907 C28.296723,4.2493829 26.8573683,5.70071599 25.4179845,7.15202007 Z M196.276461,21.084345 C198.859851,21.084345 200,19.6976617 200,18.0943182 C200,14.512029 194.400479,15.6243338 194.400479,13.818542 C194.400479,13.1108431 195.035378,12.6195145 196.016874,12.6195145 C197.027086,12.6195145 198.051799,12.966403 198.816635,13.7318201 L199.769128,12.4750743 C198.888855,11.6084335 197.661984,11.1173955 196.175526,11.1173955 C194.053881,11.1173955 192.668648,12.3451368 192.668648,13.9484803 C192.668648,17.4875539 198.268169,16.2308082 198.268169,18.2532602 C198.268169,18.9032409 197.734204,19.582226 196.348681,19.582226 C195.006664,19.582226 193.952946,18.9464572 193.303546,18.2387584 L192.351054,19.5532216 C193.217114,20.4488669 194.501413,21.084345 196.276461,21.084345 Z M85.4003792,21.084345 C88.2720699,21.084345 90.3214952,18.975461 90.3214952,16.1008706 C90.3214952,13.2262796 88.2720699,11.1173955 85.4003792,11.1173955 C82.5138967,11.1173955 80.4789725,13.2262796 80.4789725,16.1008706 C80.4789725,18.975461 82.5138967,21.084345 85.4003792,21.084345 Z M125.117068,21.084345 C127.051057,21.084345 128.248924,20.0587621 128.985047,18.9032409 L127.541806,18.1810401 C127.079771,18.975461 126.141781,19.582226 125.117068,19.582226 C123.212082,19.582226 121.797845,18.1088201 121.797845,16.1008706 C121.797845,14.0642059 123.212082,12.6195145 125.117068,12.6195145 C126.141781,12.6195145 127.079771,13.2117777 127.541806,14.0207004 L128.970545,13.2697851 C128.263426,12.113974 127.051057,11.1173955 125.117068,11.1173955 C122.274091,11.1173955 120.066013,13.125345 120.066013,16.1008706 C120.066013,19.0621829 122.274091,21.084345 125.117068,21.084345 Z M183.485097,11.2763375 L187.266064,20.9111911 L185.346577,20.9111911 L184.639458,19.047681 L180.223302,19.047681 L179.516184,20.9111911 L177.596696,20.9111911 L181.377953,11.2763375 L183.485097,11.2763375 Z M59.210887,17.9498781 L59.210887,11.2763375 L60.8995026,11.2763375 L60.8995026,20.9111911 L59.2686052,20.9111911 L54.2462647,14.0207004 L54.2462647,20.9111911 L52.5576491,20.9111911 L52.5576491,11.2763375 L54.289771,11.2763375 L59.210887,17.9498781 Z M74.3550587,11.2763375 L74.3550587,12.7639546 L69.4481546,12.7639546 L69.4481546,15.2487316 L74.2538349,15.2487316 L74.2538349,16.7366387 L69.4481546,16.7366387 L69.4481546,19.4232833 L74.3550587,19.4232833 L74.3550587,20.9111911 L67.759539,20.9111911 L67.759539,11.2763375 L74.3550587,11.2763375 Z M168.629515,19.0621829 L171.545002,11.2763375 L173.46449,11.2763375 L169.683232,20.9111911 L167.576088,20.9111911 L163.794831,11.2763375 L165.714319,11.2763375 L168.629515,19.0621829 Z M156.242178,17.9498781 L156.242178,11.2763375 L157.930793,11.2763375 L157.930793,20.9111911 L156.299896,20.9111911 L151.277555,14.0207004 L151.277555,20.9111911 L149.588941,20.9111911 L149.588941,11.2763375 L151.320772,11.2763375 L156.242178,17.9498781 Z M103.401739,17.9498781 L103.401739,11.2763375 L105.090355,11.2763375 L105.090355,20.9111911 L103.459457,20.9111911 L98.4371167,14.0207004 L98.4371167,20.9111911 L96.7485019,20.9111911 L96.7485019,11.2763375 L98.4803331,11.2763375 L103.401739,17.9498781 Z M139.958147,11.2763375 L143.739114,20.9111911 L141.819627,20.9111911 L141.112508,19.047681 L136.696352,19.047681 L135.989233,20.9111911 L134.069746,20.9111911 L137.851003,11.2763375 L139.958147,11.2763375 Z M85.4003792,19.582226 C83.4518877,19.582226 82.2108045,18.0798164 82.2108045,16.1008706 C82.2108045,14.1074223 83.4518877,12.6195145 85.4003792,12.6195145 C87.3340788,12.6195145 88.5896639,14.1074223 88.5896639,16.1008706 C88.5896639,18.0798164 87.3340788,19.582226 85.4003792,19.582226 Z M140.636262,17.559774 L138.90443,12.966403 L137.172599,17.559774 L140.636262,17.559774 Z M184.163212,17.559774 L182.43138,12.966403 L180.699549,17.559774 L184.163212,17.559774 Z M2.77400483,1.63176729 L15.6842271,14.6494498 L28.5944495,1.63176729 C19.9876443,1.63176729 11.38081,1.63176729 2.77400483,1.63176729 Z" id="Fill-1"></path>
            </g>
        </g>
    </g>
</svg>