<?xml version="1.0" encoding="UTF-8"?>
<svg id="Layer_1" xmlns="http://www.w3.org/2000/svg" viewBox="0 0 400 400">
  <defs>
    <style>.cls-1{fill:#fff;}.cls-2{fill:none;}.cls-2,.cls-3{stroke-miterlimit:10;}.cls-2,.cls-3,.cls-4{stroke:#231f20;stroke-linecap:round;stroke-width:7px;}.cls-5,.cls-3{fill:#dbc0b9;}.cls-6{fill:#31493c;}.cls-7{fill:#fbf7f9;}.cls-4{fill:#423124;stroke-linejoin:round;}.cls-8{fill:#231f20;}</style>
  </defs>
  <path class="cls-5" d="M176.98,294.49c-32.96-2.56-66.59,30.52-63,54,4.04,26.45,54.56,35.8,81,36,14.96,.11,29.9,.22,36-9,12.58-19.01-12.41-77.77-54-81Z"/>
  <path class="cls-3" d="M374.98,312.49c-4.37-1.29-11.15-2.54-18,0-13.06,4.83-13.81,18.74-27,36-6.19,8.1-18.47,24.16-36,27-23.48,3.8-43.8-16.75-45-18-17.55-18.3-10.77-35.5-27-45-10.37-6.07-25.51-6.28-36,0-17.18,10.28-9.63,29.92-27,45-15.76,13.68-39.42,9.89-45,9-4.5-.72-22.23-3.8-36-18-14.53-14.98-13.34-30.67-27-36-6.87-2.68-13.77-1.29-18,0v-126H374.98v126Z"/>
  <path class="cls-2" d="M195.17,382.41c1.66,.35,28.32,5.74,36-6.73,3.06-4.97,2.01-11,.09-18-3.37-12.28-10.47-31.54-27-54"/>
  <path class="cls-4" d="M374.52,214.19c1.44-14.34,1.95-36.62-4.88-62.43,0,0-.32-1.21-.94-3.29-1.39-4.63-2.57-7.99-2.76-8.53-3.06-8.79-4.47-33.97-6.83-34.06-1.39-.05-1.12,8.6-3.74,9.32-6.26,1.71-14.25-45.7-41.26-72.32C273.53,2.88,196.16,15.85,194.52,25.19c-1.39,7.87,51.65,10.18,81,54,14.15,21.12,18.16,44.94,18,45-.16,.06-4.46-24.53-18-45-36-54.42-124.02-59.76-126-54-1.15,3.32,28.05,7.26,54,36,19.63,21.73,31.7,51.03,33.87,57,1.4,3.83,2.04,6.03,2.13,6,.54-.24-11.01-32.72-27-54C177.47,23.57,106.27,20.26,104.52,25.19c-1.43,4.03,44.21,12.01,72,54,14.61,22.08,18.5,44.81,18,45-.54,.2-5.25-28.8-27-54-23.72-27.48-60.13-41.67-90-36-3.03,.58-17.37,3.3-18,9-.81,7.35,23.37,9.76,45,27,31.46,25.08,44.88,54.08,45,54,.12-.08-13.37-30.2-45-54-34.19-25.73-61.13-22.67-66.94-21.83-1.06,.15-21.14,3.17-21.94,10.46-.96,8.74,29.42,11.21,33.72,29.37,4.82,20.33-18.6,42.65-16.3,44.49,3.07,2.46,29.19-23.35,29.57-22.96,.27,.28-14.47,12.16-23.28,26.11-9.06,14.36-16.3,38-6.83,78.37,20.16,2.44,47.68,3.36,78.89-3.54,29.08-6.43,54.64-18.17,54.94-17.4,.39,.98-42.03,17.43-41,20.65,1.93,6.05,118.6-23.45,119.17-21.15,.34,1.36-40.84,11.45-40.16,14.98,.51,2.64,24.26,.88,45.07-2.77,19.65-3.44,30.35-7.46,38.16-9.4,17.78-4.43,45.41-4.31,86.92,18.64Z"/>
  <path class="cls-4" d="M32.52,214.19c-3.6,9.45-7.19,21.6-9,36-3.07,24.44,.32,44.84,3.71,58.15,11.32-28.19,14.24-46.07,14.29-57.66,0-.27,0-.49,0-.49-.02-10.78-2.47-22.83-9-36Z"/><path class="cls-4" d="M374.81,214.19c3.66,8.87,7.55,21.1,9,36,2.5,25.73-3.56,46.41-7.96,57.92-7.84-27.75-9.98-45.62-10.04-57.43,0-.29,0-.49,0-.49,.02-10.78,2.47-22.83,9-36Z"/><path class="cls-4" d="M165.44,267.74c-3.16-5.55-8.72-13.28-18-18-30.46-15.49-72.9,15.72-72,18,.63,1.58,21.93-11.47,54-9,14.88,1.15,27.14,5.2,36,9Z"/><path class="cls-4" d="M241.55,267.06c3.16-5.55,8.72-13.28,18-18,30.46-15.49,72.9,15.72,72,18-.63,1.58-21.93-11.47-54-9-14.88,1.15-27.14,5.2-36,9Z"/><g><g><path class="cls-7" d="M286.55,343.37c-20.55,0-38.83-13.06-45.49-32.5l-.69-2.01,1.47-1.54c16.93-17.78,38.51-19.16,44.71-19.16,24.55,0,40.43,14.67,44.71,19.16l1.47,1.54-.69,2.01c-6.66,19.44-24.95,32.5-45.49,32.5Z"/><path class="cls-8" d="M286.55,291.66c24.46,0,39.64,15.41,42.18,18.08-6.16,17.98-23.18,30.13-42.18,30.13s-36.02-12.15-42.18-30.13c16.87-17.72,38.5-18.08,42.18-18.08m0-7c-6.56,0-29.35,1.46-47.25,20.25l-2.93,3.08,1.38,4.02c7.15,20.85,26.76,34.86,48.8,34.86s41.65-14.01,48.8-34.86l1.38-4.02-2.93-3.08c-4.52-4.75-21.3-20.25-47.25-20.25h0Z"/></g><g><path class="cls-8" d="M286.55,328.19c-8.04,0-14.58-6.54-14.58-14.58s6.54-14.58,14.58-14.58,14.58,6.54,14.58,14.58-6.54,14.58-14.58,14.58Z"/><path class="cls-6" d="M286.55,302.53c6.11,0,11.08,4.97,11.08,11.08s-4.97,11.08-11.08,11.08-11.08-4.97-11.08-11.08,4.97-11.08,11.08-11.08m0-7c-9.98,0-18.08,8.09-18.08,18.08s8.09,18.08,18.08,18.08,18.08-8.09,18.08-18.08-8.09-18.08-18.08-18.08h0Z"/></g></g><g><g><path class="cls-7" d="M120.44,343.37c-20.83,0-39.36-13.24-46.11-32.94l-.69-2.01,1.47-1.54c17.17-18.03,39.04-19.43,45.33-19.43,24.89,0,40.99,14.87,45.34,19.43l1.47,1.54-.69,2.01c-6.75,19.7-25.29,32.94-46.11,32.94Z"/><path class="cls-8" d="M120.44,290.95c24.82,0,40.23,15.64,42.8,18.34-6.25,18.24-23.52,30.57-42.8,30.57s-36.55-12.33-42.8-30.57c17.12-17.98,39.07-18.34,42.8-18.34m0-7c-6.65,0-29.74,1.48-47.87,20.52l-2.93,3.08,1.38,4.02c7.24,21.12,27.1,35.3,49.42,35.3s42.18-14.19,49.42-35.3l1.38-4.02-2.93-3.08c-4.58-4.81-21.58-20.52-47.87-20.52h0Z"/></g><g><path class="cls-8" d="M120.44,328.06c-8.18,0-14.84-6.66-14.84-14.84s6.66-14.84,14.84-14.84,14.84,6.66,14.84,14.84-6.66,14.84-14.84,14.84Z"/><path class="cls-6" d="M120.44,301.88c6.25,0,11.34,5.09,11.34,11.34s-5.09,11.34-11.34,11.34-11.34-5.09-11.34-11.34,5.09-11.34,11.34-11.34m0-7c-10.13,0-18.34,8.21-18.34,18.34s8.21,18.34,18.34,18.34,18.34-8.21,18.34-18.34-8.21-18.34-18.34-18.34h0Z"/></g></g><g><path class="cls-1" d="M287.15,380.37c-20.34,0-40.63-11.24-54.28-30.05-5.86-8.08-9.82-16.87-11.46-25.41-.61-3.21-2.6-5.95-5.46-7.51-2.94-1.61-6.04-2.66-9.23-3.12-1.29-.19-2.6-.29-3.9-.29s-2.62,.1-3.91,.29c-2.31,.34-4.59,.99-6.78,1.94-3.35,1.44-5.74,4.48-6.39,8.11-1.57,8.71-5.57,17.7-11.58,26-13.64,18.82-33.93,30.05-54.28,30.05s-40.63-11.24-54.27-30.05c-5.56-7.67-9.44-16.02-11.21-24.15-.94-4.34-4.37-7.63-8.74-8.37l-16.31-2.79c-1-.17-1.88-.72-2.47-1.56-.59-.83-.82-1.84-.65-2.85l.97-5.67c.31-1.84,1.89-3.17,3.75-3.17,.22,0,.44,.02,.65,.06l14.91,2.55c.6,.1,1.22,.16,1.82,.15,3.87,0,7.46-2.08,9.37-5.44,11.87-20.79,44.67-26.33,62.18-26.33s48.19,5.14,60.97,24.41c2.1,3.16,5.58,5.04,9.31,5.04,.91,0,1.81-.11,2.69-.34,1.35-.35,2.74-.62,4.11-.83,1.94-.28,3.91-.43,5.86-.43s3.92,.14,5.85,.43c1.76,.26,3.52,.64,5.22,1.13,.95,.27,1.93,.41,2.92,.41,3.67,0,7.05-1.86,9.05-4.97,12.58-19.62,44.43-24.85,61.27-24.85s49.97,5.48,62,26c1.94,3.3,5.51,5.36,9.33,5.36,.71,0,1.42-.07,2.12-.21l11.92-2.38c.25-.05,.5-.08,.76-.08,1.81,0,3.38,1.29,3.73,3.07l1.13,5.64c.41,2.06-.93,4.08-2.99,4.49l-13.98,2.79c-4.24,.85-7.56,4.13-8.45,8.37-1.73,8.25-5.64,16.72-11.29,24.52-13.64,18.82-33.93,30.05-54.27,30.05Zm0-94.24c-17.24,0-46.65,6.31-52.19,23.24-2.92,8.93,.43,21.61,8.75,33.09,8.6,11.86,24.52,24.53,43.44,24.53s34.84-12.67,43.44-24.52c8.32-11.48,11.67-24.15,8.75-33.09-5.54-16.93-34.95-23.25-52.19-23.25Zm-167.27,0c-17.24,0-46.65,6.31-52.19,23.24-2.92,8.93,.43,21.61,8.75,33.09,8.59,11.86,24.52,24.52,43.44,24.52s34.84-12.67,43.44-24.53c8.32-11.48,11.67-24.15,8.75-33.09-5.54-16.93-34.95-23.25-52.19-23.25Z"/>
  <path class="cls-8" d="M287.15,276.25c16.62,0,47.75,5.11,58.98,24.27,2.56,4.37,7.29,7.09,12.35,7.09,.94,0,1.88-.09,2.81-.28l11.92-2.38s.05,0,.07,0c.06,0,.26,.05,.3,.25l1.13,5.64s.03,.13-.05,.24c-.07,.11-.16,.13-.2,.13l-13.98,2.8c-5.62,1.12-10.01,5.47-11.19,11.08-1.63,7.76-5.33,15.78-10.7,23.18-12.99,17.91-32.22,28.61-51.44,28.61s-38.46-10.69-51.44-28.61c-5.56-7.67-9.31-15.98-10.85-24.02-.81-4.24-3.44-7.86-7.22-9.92-3.3-1.8-6.8-2.99-10.39-3.52-1.46-.22-2.94-.32-4.42-.32s-2.96,.11-4.42,.32c-2.61,.38-5.19,1.12-7.66,2.18-4.43,1.91-7.59,5.91-8.46,10.71-1.47,8.19-5.27,16.69-10.97,24.56-12.99,17.91-32.22,28.61-51.44,28.61s-38.45-10.69-51.44-28.61c-5.28-7.29-8.95-15.18-10.62-22.84-1.25-5.74-5.79-10.09-11.57-11.08l-16.31-2.79c-.17-.03-.29-.19-.26-.36l.97-5.67c.03-.2,.22-.26,.3-.26,.02,0,.04,0,.06,0l14.91,2.55c.8,.14,1.61,.2,2.41,.2,5.12,0,9.87-2.76,12.41-7.2,11.08-19.39,42.39-24.57,59.14-24.57s46.09,4.81,58.06,22.84c2.75,4.14,7.32,6.61,12.23,6.61,1.2,0,2.4-.15,3.56-.45,1.23-.32,2.5-.57,3.75-.75,1.77-.26,3.57-.39,5.35-.39s3.58,.13,5.34,.39c1.6,.24,3.21,.58,4.77,1.03,1.27,.36,2.57,.55,3.89,.55,4.87,0,9.35-2.46,12-6.58,11.77-18.35,42.2-23.24,58.32-23.24m0,94.24c20.23,0,37.17-13.42,46.27-25.97,9.1-12.56,12.56-26.1,9.24-36.23-6.16-18.82-36.57-25.66-55.52-25.66s-49.36,6.83-55.52,25.66c-3.31,10.13,.14,23.67,9.24,36.23,9.1,12.56,26.04,25.97,46.27,25.97m-167.27,0c20.24,0,37.17-13.42,46.27-25.97,9.1-12.55,12.56-26.1,9.24-36.23-6.16-18.82-36.58-25.66-55.52-25.66s-49.36,6.83-55.52,25.66c-3.31,10.13,.14,23.67,9.24,36.23,9.1,12.55,26.04,25.97,46.27,25.97m167.27-101.24c-18.77,0-50.97,5.82-64.21,26.46-1.36,2.12-3.68,3.36-6.11,3.36-.65,0-1.31-.09-1.95-.28-1.8-.52-3.69-.94-5.68-1.23-2.11-.31-4.24-.47-6.36-.47s-4.25,.16-6.37,.47c-1.55,.23-3.04,.53-4.47,.9-.61,.16-1.22,.23-1.82,.23-2.53,0-4.95-1.3-6.4-3.48-13.44-20.24-45.27-25.97-63.89-25.97s-52.67,6.12-65.22,28.1c-1.31,2.3-3.75,3.67-6.33,3.67-.41,0-.82-.03-1.23-.1l-14.91-2.55c-.42-.07-.83-.11-1.24-.11-3.5,0-6.59,2.52-7.2,6.08l-.97,5.67c-.68,3.98,2,7.76,5.98,8.44l16.31,2.79c2.94,.5,5.27,2.75,5.91,5.67,1.85,8.49,5.83,17.24,11.79,25.46,14.3,19.72,35.65,31.5,57.11,31.5s42.81-11.78,57.11-31.5c6.42-8.86,10.56-18.33,12.2-27.43,.44-2.45,2.04-4.53,4.33-5.52,1.78-.77,3.75-1.37,5.91-1.69,1.13-.17,2.26-.25,3.4-.25s2.27,.08,3.39,.25c3.08,.45,5.77,1.48,8.06,2.73,1.94,1.06,3.28,2.93,3.7,5.1,1.71,8.91,5.79,18.15,12.06,26.81,14.3,19.72,35.65,31.5,57.11,31.5s42.81-11.78,57.11-31.5c6.05-8.35,10.07-17.24,11.88-25.85,.6-2.86,2.85-5.08,5.71-5.66l13.98-2.8c3.96-.79,6.53-4.65,5.74-8.61l-1.13-5.64c-.7-3.48-3.75-5.88-7.16-5.88-.48,0-.96,.05-1.44,.14l-11.92,2.38c-.48,.1-.96,.14-1.43,.14-2.56,0-4.98-1.35-6.31-3.63-12.71-21.69-45.87-27.74-65.02-27.74h0Zm0,94.24c-17.6,0-32.52-11.92-40.61-23.08-7.67-10.58-10.84-22.06-8.26-29.94,4.7-14.37,31.4-20.83,48.86-20.83s44.16,6.46,48.86,20.83c2.58,7.89-.58,19.36-8.26,29.94-8.09,11.16-23,23.08-40.6,23.08h0Zm-167.27,0c-17.6,0-32.52-11.92-40.6-23.08-7.67-10.58-10.84-22.06-8.26-29.94,4.7-14.37,31.4-20.83,48.86-20.83s44.16,6.46,48.86,20.83h0c2.58,7.89-.58,19.36-8.26,29.94-8.09,11.16-23,23.08-40.61,23.08h0Z"/>
  </g>
</svg>