<?xml version="1.0" encoding="UTF-8"?><svg id="Layer_1" xmlns="http://www.w3.org/2000/svg" viewBox="0 0 380 380"><defs><style>.cls-1{fill:#fff;}.cls-2,.cls-3{fill:#dbc0b9;}.cls-4{fill:#31493c;}.cls-5{fill:#fbf7f9;}.cls-3,.cls-6,.cls-7{stroke:#231f20;stroke-linecap:round;stroke-width:6px;}.cls-3,.cls-7{stroke-miterlimit:10;}.cls-6{fill:#423124;stroke-linejoin:round;}.cls-7{fill:none;}.cls-8{fill:#231f20;}</style></defs><path class="cls-3" d="M57.27,314.43c5,8,13,15,22,19,19,10,42,12,59-2s21-37,37-50c10-9,35-7,40,9,5,18,11,41,29,45,17,4,36,9,53,4,23-7,26-36,41-54,1,0,4-1,5-1,3.45-2.59,7.25-4.67,11.24-6.34,4.46-28.93,6.97-60.88,6.71-95.19-27.68-15.63-92.46-47.27-180-45-77.29,2-134.51,29.46-162,45-1.45,33.08-.4,64.17,2.59,92.54,6.23,.69,12.19,2.48,17.45,5.99,12,7,11,22,18,33Z"/><path class="cls-2" d="M310.86,332.25c-39.12,15.42-57.26,10.52-66.59,3.18-14.6-11.48-21.83-22.06-29-45-5-16-30-18-40-9-16,13-20,36-37,50-5.04,4.15-23.6,2.53-59,2-5.93-.09-10.78-.2-13.93-.29,29.74,27.28,54.56,33.87,72.28,34.5,16.08,.57,23.89-3.86,51.7-3.42,27.52,.44,34.13,5.01,49.53,4.58,17.17-.47,41.92-7.06,72-36.56Z"/><path class="cls-7" d="M178.87,339.13c1.66,.35,28.32,5.74,36-6.73,2.61-4.24,1.39-10.16,.09-18-1.35-8.15-3.87-14.54-5.82-18.71"/><path class="cls-6" d="M361.22,182.91c.37-6.46,.75-15.74,.66-26.91-.03-4.04-.22-22.54-2.24-38.08-2.06-15.81-5.16-39.63-18.41-58.88-21.81-31.69-65.33-41.94-69.47-35.78-2.13,3.17,7.09,9.22,18.56,28.47,16.87,28.31,20.22,54.31,20.12,54.34-.1,.03-2.09-28.82-20.12-54.34C261.92,11.54,204.71,4.43,202.22,9.69c-2.02,4.27,33.43,15.41,51.88,52.77,8.12,16.44,10.55,33.53,10.51,33.54-.05,.01-2.36-18.2-10.51-33.54C230.52,18.05,162.81,6.52,159.74,12.82c-1.68,3.44,17.13,9.76,34.66,34.88,16.57,23.76,20.13,47.32,19.9,47.4-.24,.08-2.89-25.49-21.02-46.51-25.9-30.03-71.31-36.73-74.68-30.19-1.86,3.6,10.1,9.06,24.6,28.84,19.28,26.32,23.93,51.93,23.48,52.1-.52,.2-4.62-34.04-30.41-54.56-27.48-21.86-70.15-20.63-73.34-11.85-1.26,3.47,4.15,6.7,14.31,18.11,23.86,26.8,32.53,51.82,32.42,51.88-.32,.16-8.08-29.01-34.21-47.63-3.11-2.21-35.56-24.79-53.66-11.18-15.21,11.43-12.41,42.45-6.26,44.5,4.85,1.62,14.02-14.03,16.32-12.52,1.02,.67-.28,4.04-1.79,9.39-1.76,6.24-2.6,12.72-4,19.05-1.61,7.24-3.87,26.58-6.83,78.37,12.33,2.3,32.05,4.44,54.66-.82,36.59-8.51,62.93-32.21,70.44-24.82,4.82,4.75-4.03,16.5,1.34,21.69,5.44,5.25,18.06-3.39,45.17-11.18,19.63-5.64,39.61-8.75,40.41-6.32,.88,2.7-22.56,10.7-21.62,13.92,.83,2.86,21.23,3.34,38.31-6.93,11.71-7.04,11.63-12.98,20.57-15.65,11.96-3.57,22.61,3.94,36.07,10.88,12.82,6.61,31.43,14.37,56.66,19.23Z"/><path class="cls-6" d="M19.22,182.91c-3.67,8.31-7.89,20.63-9,36-1.86,25.88,6.16,45.98,10.89,55.75,5.5-26.12,7.07-43.47,7.11-55.26,0-.2,0-.31,0-.49-.02-10.78-2.47-22.83-9-36Z"/><path class="cls-6" d="M361.51,182.91c3.68,7.87,8.24,20.29,9,36,1.35,27.75-9.96,48.41-15.12,56.65-2.17-26.59-2.83-44.18-2.88-56.16,0-.23,0-.34,0-.49,.02-10.78,2.47-22.83,9-36Z"/><path class="cls-6" d="M152.15,236.46c-3.16-5.55-8.72-13.28-18-18-30.46-15.49-72.9,15.72-72,18,.63,1.58,21.93-11.47,54-9,14.88,1.15,27.14,5.2,36,9Z"/><path class="cls-6" d="M228.25,235.78c3.16-5.55,8.72-13.28,18-18,30.46-15.49,72.9,15.72,72,18-.63,1.58-21.93-11.47-54-9-14.88,1.15-27.14,5.2-36,9Z"/><g><g><path class="cls-5" d="M273.26,310.41c-20.33,0-38.42-12.92-45.02-32.16l-.59-1.72,1.26-1.32c16.8-17.64,38.2-19.01,44.35-19.01,24.36,0,40.11,14.55,44.35,19.01l1.26,1.32-.59,1.72c-6.59,19.23-24.69,32.16-45.02,32.16Z"/><path class="cls-8" d="M273.26,259.21c24.47,0,39.64,15.41,42.18,18.08-6.16,17.98-23.18,30.13-42.18,30.13s-36.02-12.15-42.18-30.13c16.87-17.72,38.5-18.08,42.18-18.08m0-6c-6.46,0-28.9,1.44-46.53,19.94l-2.51,2.64,1.18,3.45c7.01,20.45,26.24,34.18,47.86,34.18s40.85-13.74,47.86-34.18l1.18-3.45-2.51-2.64c-4.46-4.68-20.98-19.94-46.53-19.94h0Z"/></g><g><path class="cls-8" d="M273.26,296.23c-8.31,0-15.08-6.76-15.08-15.08s6.76-15.08,15.08-15.08,15.08,6.76,15.08,15.08-6.76,15.08-15.08,15.08Z"/><path class="cls-4" d="M273.26,269.07c6.66,0,12.08,5.42,12.08,12.08s-5.42,12.08-12.08,12.08-12.08-5.42-12.08-12.08,5.42-12.08,12.08-12.08m0-6c-9.98,0-18.08,8.09-18.08,18.08s8.09,18.08,18.08,18.08,18.08-8.09,18.08-18.08-8.09-18.08-18.08-18.08h0Z"/></g></g><g><g><path class="cls-5" d="M107.14,310.77c-20.61,0-38.95-13.1-45.64-32.6l-.59-1.72,1.26-1.32c17.03-17.88,38.73-19.27,44.97-19.27,24.7,0,40.67,14.75,44.97,19.27l1.26,1.32-.59,1.72c-6.69,19.5-25.03,32.6-45.64,32.6Z"/><path class="cls-8" d="M107.14,258.85c24.83,0,40.23,15.64,42.8,18.34-6.25,18.24-23.52,30.57-42.8,30.57s-36.55-12.33-42.8-30.57c17.12-17.98,39.07-18.34,42.8-18.34m0-6c-6.55,0-29.29,1.46-47.15,20.21l-2.51,2.64,1.18,3.45c7.1,20.71,26.58,34.63,48.48,34.63s41.38-13.92,48.48-34.63l1.18-3.45-2.51-2.64c-4.51-4.74-21.26-20.21-47.15-20.21h0Z"/></g><g><path class="cls-8" d="M107.14,296.46c-8.46,0-15.34-6.88-15.34-15.34s6.88-15.34,15.34-15.34,15.34,6.88,15.34,15.34-6.88,15.34-15.34,15.34Z"/><path class="cls-4" d="M107.14,268.78c6.81,0,12.34,5.54,12.34,12.34s-5.54,12.34-12.34,12.34-12.34-5.54-12.34-12.34,5.54-12.34,12.34-12.34m0-6c-10.13,0-18.34,8.21-18.34,18.34s8.21,18.34,18.34,18.34,18.34-8.21,18.34-18.34-8.21-18.34-18.34-18.34h0Z"/></g></g><g><path class="cls-1" d="M273.86,349.59c-20.5,0-40.94-11.31-54.68-30.26-5.9-8.14-9.89-17-11.54-25.61-.59-3.07-2.48-5.68-5.21-7.16-2.88-1.58-5.93-2.61-9.06-3.07-1.26-.19-2.55-.28-3.83-.28s-2.57,.09-3.83,.28c-2.27,.33-4.51,.97-6.66,1.9-3.2,1.38-5.48,4.27-6.1,7.74-1.58,8.78-5.61,17.84-11.67,26.2-13.74,18.95-34.18,30.26-54.68,30.26s-40.94-11.31-54.68-30.26c-5.6-7.73-9.51-16.15-11.29-24.34-.9-4.14-4.17-7.27-8.33-7.99l-16.32-2.79c-2.34-.4-3.93-2.63-3.53-4.98l.97-5.67c.36-2.08,2.14-3.59,4.24-3.59,.24,0,.49,.02,.74,.06l14.91,2.55c.57,.1,1.16,.15,1.74,.15,3.69,0,7.11-1.99,8.94-5.18,11.99-20.98,45-26.58,62.61-26.58s48.49,5.19,61.39,24.63c2,3.02,5.33,4.82,8.9,4.82,.87,0,1.73-.11,2.57-.32,1.36-.35,2.77-.63,4.17-.84,1.96-.29,3.95-.43,5.93-.43s3.97,.15,5.93,.43c1.78,.26,3.56,.65,5.29,1.15,.91,.26,1.84,.39,2.78,.39,3.5,0,6.73-1.77,8.63-4.74,12.7-19.8,44.75-25.08,61.69-25.08s50.28,5.53,62.43,26.25c1.85,3.15,5.26,5.11,8.9,5.11,.67,0,1.35-.07,2.02-.2l11.92-2.38c.28-.06,.57-.08,.85-.08,2.04,0,3.82,1.46,4.22,3.47l1.13,5.64c.23,1.13,0,2.28-.64,3.24-.64,.96-1.61,1.61-2.74,1.84l-13.98,2.79c-4.05,.81-7.21,3.94-8.06,7.98-1.75,8.31-5.68,16.85-11.37,24.71-13.74,18.95-34.18,30.26-54.68,30.26Zm0-94.24c-17.1,0-46.26,6.22-51.72,22.9-2.87,8.78,.45,21.29,8.68,32.64,8.52,11.76,24.3,24.32,43.04,24.32s34.51-12.56,43.03-24.32c8.23-11.35,11.55-23.86,8.68-32.64-5.46-16.68-34.62-22.9-51.71-22.9Zm-167.27,0c-17.1,0-46.25,6.22-51.71,22.9-2.87,8.78,.45,21.29,8.68,32.64,8.52,11.76,24.3,24.32,43.03,24.32s34.51-12.56,43.03-24.32c8.23-11.35,11.55-23.85,8.68-32.64-5.46-16.68-34.62-22.9-51.71-22.9Z"/><path class="cls-8" d="M273.86,243.97c16.83,0,48.38,5.22,59.84,24.77,2.38,4.07,6.78,6.59,11.49,6.59,.87,0,1.75-.09,2.61-.26l11.92-2.38c.09-.02,.18-.03,.27-.03,.53,0,1.14,.36,1.28,1.06l1.13,5.64c.09,.44-.06,.78-.2,.99-.14,.21-.39,.47-.84,.56l-13.98,2.8c-5.23,1.04-9.31,5.09-10.41,10.31-1.66,7.9-5.42,16.05-10.86,23.56-13.17,18.17-32.71,29.02-52.25,29.02s-39.08-10.85-52.25-29.02c-5.65-7.79-9.46-16.23-11.03-24.41-.76-3.95-3.2-7.31-6.71-9.23-3.2-1.75-6.58-2.89-10.06-3.4-1.41-.21-2.85-.31-4.27-.31s-2.86,.11-4.27,.31c-2.52,.37-5.02,1.08-7.41,2.11-4.12,1.78-7.06,5.5-7.87,9.97-1.5,8.34-5.35,16.98-11.15,24.97-13.17,18.17-32.71,29.02-52.25,29.02s-39.08-10.85-52.25-29.02c-5.36-7.4-9.09-15.42-10.79-23.22-1.16-5.34-5.39-9.39-10.76-10.31l-16.31-2.79c-.44-.08-.71-.33-.85-.54s-.3-.54-.22-.98l.97-5.67c.12-.71,.75-1.09,1.29-1.09,.08,0,.15,0,.23,.02l14.91,2.55c.74,.13,1.5,.19,2.24,.19,4.76,0,9.18-2.57,11.54-6.7,11.3-19.79,43.04-25.07,60.01-25.07s46.69,4.9,58.89,23.29c2.56,3.86,6.82,6.16,11.4,6.16,1.12,0,2.23-.14,3.31-.42,1.27-.32,2.56-.58,3.86-.77,1.81-.27,3.66-.4,5.49-.4s3.68,.14,5.49,.4c1.65,.24,3.29,.6,4.9,1.06,1.18,.34,2.39,.51,3.61,.51,4.53,0,8.7-2.29,11.16-6.12,12-18.71,42.84-23.7,59.16-23.7m0,94.24c19.86,0,36.51-13.2,45.46-25.56,8.91-12.3,12.32-25.5,9.1-35.33-2.71-8.28-10.77-15.05-23.31-19.58-9.33-3.37-21.02-5.38-31.25-5.38s-21.92,2.01-31.25,5.38c-12.54,4.53-20.6,11.3-23.31,19.58-3.22,9.83,.19,23.03,9.1,35.33,8.96,12.36,25.6,25.56,45.46,25.56m-167.27,0c19.86,0,36.51-13.2,45.46-25.56,8.91-12.3,12.32-25.5,9.1-35.33-2.71-8.28-10.77-15.05-23.31-19.58-9.33-3.37-21.02-5.38-31.25-5.38s-21.92,2.01-31.25,5.38c-12.54,4.53-20.6,11.3-23.31,19.58-3.21,9.83,.19,23.03,9.1,35.33,8.96,12.36,25.6,25.56,45.46,25.56m167.27-100.24c-18.77,0-50.97,5.82-64.21,26.46-1.36,2.12-3.68,3.36-6.11,3.36-.65,0-1.31-.09-1.95-.28-1.8-.52-3.69-.94-5.68-1.23-2.11-.31-4.24-.47-6.36-.47s-4.25,.16-6.37,.47c-1.55,.23-3.04,.53-4.47,.9-.61,.16-1.22,.23-1.82,.23-2.53,0-4.95-1.3-6.4-3.48-13.43-20.24-45.27-25.97-63.89-25.97s-52.67,6.12-65.22,28.1c-1.31,2.3-3.75,3.67-6.33,3.67-.41,0-.82-.03-1.23-.1l-14.9-2.55c-.42-.07-.83-.11-1.24-.11-3.5,0-6.59,2.52-7.2,6.08l-.97,5.67c-.68,3.98,2,7.76,5.98,8.44l16.31,2.79c2.95,.5,5.27,2.75,5.91,5.67,1.85,8.49,5.83,17.24,11.79,25.46,14.3,19.72,35.65,31.5,57.11,31.5s42.81-11.78,57.11-31.5c6.42-8.86,10.56-18.33,12.2-27.43,.44-2.45,2.04-4.53,4.33-5.52,1.78-.77,3.75-1.37,5.91-1.69,1.13-.17,2.26-.25,3.4-.25s2.27,.08,3.4,.25c3.08,.45,5.77,1.48,8.06,2.73,1.94,1.06,3.28,2.93,3.7,5.1,1.71,8.91,5.79,18.15,12.06,26.81,14.3,19.72,35.65,31.5,57.11,31.5s42.81-11.78,57.11-31.5c6.05-8.35,10.07-17.24,11.88-25.85,.6-2.86,2.85-5.08,5.71-5.66l13.98-2.8c3.96-.79,6.53-4.65,5.74-8.61l-1.13-5.64c-.7-3.48-3.75-5.88-7.16-5.88-.48,0-.96,.05-1.44,.14l-11.92,2.38c-.48,.1-.96,.14-1.43,.14-2.56,0-4.98-1.35-6.31-3.63-12.71-21.69-45.87-27.74-65.02-27.74h0Zm0,94.24c-17.6,0-32.52-11.92-40.61-23.08-7.67-10.58-10.84-22.06-8.26-29.94,4.7-14.37,31.4-20.83,48.86-20.83s44.16,6.46,48.86,20.83c2.58,7.89-.58,19.36-8.26,29.94-8.09,11.16-23,23.08-40.6,23.08h0Zm-167.27,0c-17.6,0-32.52-11.92-40.6-23.08-7.67-10.58-10.84-22.06-8.26-29.94,4.7-14.37,31.4-20.83,48.86-20.83s44.16,6.46,48.86,20.83h0c2.58,7.89-.58,19.36-8.26,29.94-8.09,11.16-23,23.08-40.61,23.08h0Z"/></g><path class="cls-6" d="M241.03,368.43c-21.76,4.81-32.99,2.7-39.26-.33-1.66-.8-6.13-3.2-12.25-3.21-6.8-.02-11.75,2.91-13.67,3.9-6.28,3.26-17.33,5.21-38.24-1.14,3.47-3.35,9.13-7.96,17.08-10.84,10.72-3.87,15-.77,34.43-.79,22.78-.03,29.86-4.31,40.4,1.58,5.71,3.19,9.35,7.65,11.5,10.84Z"/></svg>