<?xml version="1.0" encoding="UTF-8"?><svg id="Layer_1" xmlns="http://www.w3.org/2000/svg" viewBox="0 0 100 100"><path d="M41,60.37c3.38,2.42,7.1,3.65,11.29,2.98,2.27-.36,4.54-1.15,5-3.66,.44-2.4-1.69-3.5-3.44-4.38-1.77-.89-3.74-1.37-5.61-2.07-1.87-.69-3.8-1.28-5.56-2.17-5.3-2.69-7.87-7.01-7.2-11.82,.63-4.52,4.76-8.27,10.2-9.53,5.64-1.3,10.8,.11,15.88,2.63,1.88-1.98,3.68-3.88,5.62-5.93-13.17-9.29-30.4-6.77-40.18,5.47-9.73,12.17-7.03,29.3,.66,36.44,3.31-3.5,6.62-7.01,9.98-10.56,1.2,.94,2.25,1.82,3.35,2.61Z"/><path d="M72.79,31.83c-3.63,3.31-7.2,6.56-10.81,9.85-9.46-6.64-16.84-7.07-19.41-.79,1.06,3.47,4.25,4.31,7.2,5.28,2.6,.85,5.24,1.53,7.67,2.83,5.32,2.84,7.79,6.98,7.07,11.9-.65,4.4-4.73,8.15-9.98,9.39-5.76,1.37-11.03-.07-16.18-2.67-1.9,2.03-3.96,3.77-5.45,6.05,11.99,8.68,28.52,7.1,38.37-3.53,10.13-10.94,10.76-27.3,1.51-38.31Z"/><path d="M50,2.5C23.77,2.5,2.5,23.77,2.5,50s21.27,47.5,47.5,47.5,47.5-21.27,47.5-47.5S76.23,2.5,50,2.5Zm-.1,84.06c-19.97,0-36.41-16.42-36.43-36.4-.02-20.23,16.32-36.66,36.48-36.67,20.2,0,36.6,16.37,36.59,36.55,0,20.17-16.4,36.51-36.64,36.52Z"/></svg>