<?xml version="1.0" encoding="UTF-8"?><svg id="Layer_1" xmlns="http://www.w3.org/2000/svg" viewBox="0 0 230 100"><g id="Layer_2"><g id="Layer_1-2"><path d="M199.94,66.83h16.43v-3.92c.02-.52-.1-1.03-.34-1.49-.19-.35-.46-.65-.78-.89h0c-.31-.24-.64-.43-1-.57h0l-1.92-.6v-6.96l8.15-12.5,2.43-.5h0c.36-.14,.7-.33,1.01-.57h0c.32-.24,.58-.54,.78-.89,.24-.46,.36-.97,.34-1.49v-3.88h-9.3l-7.51,11.92-7.47-11.92h-9.62v3.89c-.02,.51,.08,1.02,.3,1.48,.18,.36,.44,.67,.76,.91h0c.32,.25,.69,.44,1.07,.58h0l2.32,.5,8.05,12.48v6.95l-1.91,.6h0c-.38,.14-.74,.33-1.06,.58h0c-.32,.24-.58,.55-.76,.91-.22,.46-.33,.97-.31,1.48v3.92h.34"/><polygon points="27.2 13.24 203.76 13.24 203.76 26.98 212.01 26.98 212.01 5 18.95 5 18.95 26.98 27.2 26.98 27.2 13.24"/><polygon points="203.76 86.76 27.2 86.76 27.2 73.02 18.95 73.02 18.95 95 212.01 95 212.01 73.02 203.76 73.02 203.76 86.76"/><path d="M4.96,32.65h15.7v3.61c.02,.46-.08,.93-.3,1.34-.17,.31-.4,.59-.69,.8-.28,.22-.6,.4-.93,.54l-1.95,.69v13.99c0,.9,.13,1.8,.39,2.66,.24,.79,.65,1.52,1.2,2.14,.57,.63,1.28,1.12,2.06,1.44,.92,.37,1.91,.56,2.9,.54,.99,.02,1.97-.16,2.88-.54,.77-.32,1.45-.81,2-1.44,.53-.63,.93-1.36,1.17-2.14,.27-.86,.4-1.76,.39-2.66v-13.99l-1.95-.69c-.35-.13-.68-.31-.98-.54-.29-.21-.52-.49-.69-.8-.19-.42-.29-.88-.27-1.34v-3.61h15.72v3.61c.02,.46-.08,.92-.29,1.34-.17,.31-.41,.59-.69,.8-.28,.22-.59,.4-.92,.54l-1.95,.69v13.99c0,1.78-.33,3.55-.98,5.21-.64,1.64-1.6,3.13-2.83,4.39-1.29,1.3-2.83,2.33-4.53,3.02-1.95,.78-4.04,1.16-6.14,1.12-2.1,.04-4.19-.34-6.14-1.12-1.7-.69-3.24-1.72-4.53-3.02-1.24-1.26-2.2-2.75-2.84-4.39-.65-1.66-.98-3.43-.97-5.21v-13.99l-1.95-.69c-.35-.13-.68-.31-.98-.54-.29-.21-.52-.49-.69-.8-.18-.42-.26-.88-.23-1.34v-3.61Z"/><path d="M44.01,66.77v-3.61c-.02-.47,.07-.94,.27-1.37,.16-.32,.4-.59,.69-.8,.29-.23,.62-.41,.97-.54l2.15-.69v-20.14l-2.15-.69c-.35-.13-.68-.31-.97-.54-.29-.21-.52-.49-.69-.8-.19-.42-.29-.88-.27-1.34v-3.61h16.38c2.45-.03,4.89,.41,7.17,1.31,2.05,.82,3.92,2.05,5.5,3.61,1.54,1.54,2.74,3.39,3.53,5.41,1.66,4.33,1.66,9.13,0,13.46-.79,2.03-1.99,3.87-3.53,5.41-1.57,1.56-3.44,2.79-5.5,3.61-2.28,.9-4.71,1.35-7.17,1.32h-16.38Zm12.04-6.97h4.25c1.19,0,2.37-.17,3.51-.52,2.4-.74,4.33-2.52,5.26-4.85,.59-1.5,.87-3.1,.83-4.71,.03-1.49-.23-2.97-.76-4.36-.9-2.34-2.75-4.19-5.1-5.08-1.17-.45-2.42-.69-3.68-.69h-4.31v20.21Z"/><path d="M92.55,59.8h11.68l.69-2.14c.14-.33,.32-.64,.54-.93,.22-.28,.49-.51,.8-.69,.42-.22,.9-.32,1.37-.3h3.37v10.99h-30.46v-3.57c-.02-.47,.07-.94,.27-1.37,.16-.32,.4-.59,.69-.8,.29-.23,.62-.41,.98-.54l2.14-.69v-20.14l-2.14-.69c-.35-.13-.68-.31-.98-.54-.29-.21-.52-.49-.69-.8-.19-.42-.29-.88-.27-1.34v-3.61h30.42v10.99h-3.37c-.47,.03-.95-.06-1.37-.27-.32-.17-.59-.4-.8-.69-.23-.3-.41-.62-.54-.98l-.69-2.14h-11.68v6.29h11.94v6.87h-11.9v7.08Z"/><path d="M135.95,66.77v-3.61c0-.39,.07-.78,.23-1.14,.12-.3,.31-.57,.54-.8,.18-.19,.38-.35,.61-.47,.14-.07,.29-.14,.44-.19l-.74-1.76h-10.99l-.74,1.76c.1,.06,.25,.14,.44,.24,.22,.12,.42,.28,.58,.47,.21,.23,.38,.49,.52,.78,.15,.36,.23,.75,.22,1.15v3.61h-13.88v-3.63c-.02-.47,.07-.94,.27-1.37,.16-.32,.4-.59,.69-.8,.3-.23,.62-.41,.98-.54l2.06-.64,12.82-27.16h2.97l12.83,27.15,2.14,.69c.33,.14,.64,.32,.93,.54,.28,.22,.52,.49,.69,.8,.22,.42,.32,.9,.3,1.37v3.61l-13.9-.03Zm-7.41-13.89h5.99l-2.97-7.02-3.02,7.02Z"/><path d="M155.84,39.67l-2.19-.74c-.35-.13-.68-.31-.98-.54-.29-.21-.52-.49-.69-.8-.19-.42-.29-.88-.27-1.34v-3.61h9.51l16.09,18.19v-11.21l-2.15-.69c-.35-.13-.68-.31-.97-.54-.29-.21-.52-.49-.69-.8-.19-.42-.29-.88-.27-1.34v-3.61h16.04v3.61c.02,.46-.08,.92-.29,1.34-.17,.31-.41,.59-.69,.8-.28,.22-.59,.4-.92,.54l-2.15,.69v27.15h-3.26l-18.13-19.6v12.63l2.14,.69c.33,.14,.64,.32,.93,.54,.28,.22,.52,.49,.69,.8,.22,.42,.32,.9,.3,1.37v3.61h-16.1v-3.64c-.02-.47,.07-.94,.27-1.37,.16-.32,.4-.59,.69-.8,.3-.23,.62-.41,.98-.54l2.14-.69-.03-20.1Z"/></g></g></svg>