<?xml version="1.0" encoding="UTF-8"?><svg id="Layer_1" xmlns="http://www.w3.org/2000/svg" viewBox="0 0 285 100"><path d="M3.4,5H62.69c.1,.75-.24,1.38-.44,2.02-.92,2.93-1.37,5.9-1.36,9,.05,22.32,.07,44.63-.01,66.95-.01,3.84,.5,7.52,1.69,11.15,.09,.28,.23,.55,.16,.89H3.32c.54-2.09,1.24-4.09,1.62-6.18,.16-.88,.28-1.76,.28-2.66,0-23.11-.04-46.23,.03-69.34,.01-3.71-.52-7.26-1.65-10.75-.11-.34-.27-.67-.2-1.07ZM50.14,50.07c-.08-.03-.16-.06-.25-.09-5.6,7.62-11.21,15.24-16.87,22.93-5.62-7.67-11.17-15.24-16.78-22.9-.32,.53-.22,.9-.22,1.25,0,10.43,0,20.85,0,31.28,0,.45-.03,.89-.17,1.35-.32,1.09-.53,2.21-.78,3.33h7.5c-.4-1.48-.86-2.9-.86-4.41,0-5.15,0-10.29,0-15.44,0-.23-.12-.52,.2-.73,3.68,5.18,7.33,10.33,11.07,15.59,3.8-5.27,7.52-10.43,11.24-15.59,.09,.03,.17,.06,.26,.1-.51,6.82,.67,13.7-.78,20.47h7.48c-1.1-2.66-1.05-5.37-1.05-8.09,.02-9.33,0-18.66,0-27.99v-1.05Zm-7.76-37.24c.62,2.08,1.03,4.02,1.01,6.06-.07,5.34-.02,10.69-.03,16.04,0,.99-.01,1.97-.21,2.95-.51,2.6-1.83,4.59-4.23,5.81-2.56,1.31-5.3,1.45-8.07,1.08-4.04-.54-8.2-2.91-8.07-9.21,.12-6.01,.02-12.02,.03-18.03,0-.46,.04-.93,.13-1.38,.21-1.09,.46-2.17,.71-3.27h-7.62c.38,1.46,.97,2.83,.97,4.26-.01,6.87,0,13.74-.03,20.61-.03,4.55,2.08,8.2,6.23,10.25,6.13,3.02,12.48,3.1,18.67,.3,4.7-2.13,7.15-6.12,7.27-11.25,.16-6.54,.02-13.08,0-19.62,0-.46,.02-.9,.15-1.36,.29-1.03,.48-2.09,.72-3.18-.28-.02-.47-.05-.67-.05-2.26,0-4.52,0-6.98,0Zm-10.55,51.68c1.33,1.12,3.76,.48,3.95-1.46,.04-.39,.11-.78,.2-1.17,.42-1.88,.56-3.83,1.11-5.65,.6-.19,1.19,.08,1.7-.21,.24-.31,.21-.62,.07-1-.47-.04-.95-.07-1.46-.11-.12-.61,0-1.09,.47-1.52h1.76c.11-.21,.23-.41,.32-.61,.05-.11,.08-.24,.12-.35-2.42-1.08-4.14-.43-4.67,2.47-.72,0-1.14,.32-.94,1.08,.23,.25,.61,.05,.78,.57-.64,2.17-.55,4.69-1.6,6.92-.52,.28-.92-.2-1.34-.05-.2,.35-.44,.67-.47,1.07Zm-4.63-5.83c0,2.28,.43,2.96,1.71,3.28,1.46,.36,3.01-.18,3.78-1.32,.98-1.45,1.19-3.9,.42-4.99-.66-.92-2.36-1.21-3.65-.6-1.77,.85-2.21,2.42-2.26,3.63Z"/><path d="M108.08,76.64h-5.85c1.06-3.65,.48-7.32,.58-10.95,.08-3.14,.02-6.28,.02-9.73-3.84,5.33-7.51,10.42-11.25,15.61-3.67-5.17-7.29-10.27-10.92-15.37,.08,6.81-.68,13.62,.25,20.45h-5.51c.94-5.22,.37-10.46,.46-15.68,.1-5.48,.02-10.96,.02-16.44v-1.16c.08-.03,.15-.05,.23-.08,5.14,7.01,10.28,14.03,15.5,21.15,5.22-7.1,10.39-14.12,15.61-21.21,.25,.41,.15,.77,.15,1.1,0,8.63,0,17.27,0,25.9,0,2.12-.15,4.25,.7,6.42Z"/><path d="M176.33,76.65h-5.88c1.06-3.4,.53-6.84,.61-10.23,.08-3.38,.02-6.76,.02-10.46-3.85,5.34-7.53,10.45-11.26,15.62-3.68-5.18-7.3-10.28-10.92-15.39-.08,.01-.17,.03-.25,.04,.3,6.78-.43,13.59,.48,20.42h-5.46c.94-5.37,.36-10.78,.46-16.16,.1-5.38,.02-10.76,.02-16.13v-1.35c5.32,7.26,10.48,14.3,15.72,21.45,5.22-7.09,10.4-14.13,15.6-21.2,.36,.37,.2,.76,.2,1.09,.01,8.53,0,17.06,.01,25.6,0,2.24-.26,4.51,.66,6.73Z"/><path d="M212.07,43.66h5.78c-.98,4.44-.23,8.92-.55,13.43h17.25c-.26-4.44,.43-8.93-.49-13.43h5.61c.05,.92-.38,1.73-.38,2.62,.03,9.2,.03,18.39,0,27.59,0,.91,.29,1.75,.44,2.71h-5.64c.9-4.94,.15-9.94,.48-14.97h-17.26c.3,4.98-.42,9.98,.49,15h-5.36c.69-8.47,.19-16.95,.32-25.42,.04-2.48,.25-4.98-.69-7.52Z"/><path d="M114.07,76.61c.92-2.95,.48-5.91,.51-8.85,.07-7.14,.03-14.28,.04-21.42,0-.91-.36-1.75-.53-2.68h23.59v4.51c-6.03-.82-12.09-.11-18.26-.44v9.63c2.62,0,5.34,.05,8.06-.01,2.67-.06,5.39,.4,8.04-.56v5.06c-5.35-.69-10.69-.08-16.07-.36v10.86c6.06-.28,12.12,.37,18.23-.41v4.55c-.71,.27-20.93,.39-23.6,.12Z"/><path d="M187.38,64.54c.28,4.1-.35,8.09,.43,12.09h-5.74c.99-2.77,.54-5.61,.57-8.41,.06-7.2,.04-14.4,.05-21.61,0-1-.41-1.94-.56-3,3.76,0,7.48,0,11.2,0,2.13,0,4.24,.27,6.3,.82,2.79,.74,5.31,1.98,6.93,4.5,3.11,4.84,.98,11.47-4.42,14-2.36,1.1-4.88,1.48-7.43,1.58-2.38,.09-4.77,.02-7.31,.02Zm.12-16.98v12.79c3.02,0,5.98,.09,8.93-.03,1.77-.07,3.44-.73,4.89-1.79,2.05-1.5,2.79-3.94,1.95-6.38-.86-2.53-2.91-3.59-5.31-4.15-3.44-.81-6.95-.2-10.47-.44Z"/><path d="M280.89,45.09c-.74,1.57-1.44,3.05-2.13,4.52-4.2-2.85-8.71-3-13.34-1.92-1.9,.44-3.48,1.51-4.01,3.6-.48,1.92,.26,3.59,2.02,4.51,2.01,1.05,4.25,1.23,6.45,1.57,1.77,.28,3.55,.51,5.28,1.01,3.4,.98,5.95,2.85,6.42,6.62,.5,4.02-.72,7.35-4.27,9.57-3.05,1.91-6.45,2.34-9.96,2.19-3.2-.14-6.32-.74-9.31-1.95-.83-.34-1.73-.44-2.7-.56,.78-1.68,1.53-3.32,2.32-5.02,3.1,2.52,6.63,3.59,10.47,3.67,2.49,.05,4.91-.35,7.01-1.83,1.68-1.18,2.35-2.83,2.09-4.84-.24-1.89-1.42-3-3.11-3.67-2.19-.87-4.51-1.05-6.81-1.39-1.71-.25-3.42-.5-5.06-1.03-2.81-.92-4.87-2.58-5.36-5.66-.55-3.42,.21-6.41,3.08-8.6,2.6-1.98,5.68-2.46,8.83-2.6,3.19-.13,6.27,.51,9.35,1.24,.87,.21,1.75,.38,2.74,.59Z"/><path d="M251.12,76.63h-5.67c.87-3.66,.39-7.34,.44-11.01,.08-6.4,.03-12.81,.04-19.22,0-.94-.42-1.79-.49-2.75h5.38c-.27,8.81-.07,17.58-.12,26.35-.01,2.18-.2,4.37,.41,6.62Z"/><path d="M189.67,32.55c0,1.81-.16,3.5,.28,5.2-.83,.16-1.61,.07-2.34,.07,.13-4.74,.14-9.42-.01-14.22,1.68,0,3.45-.03,5.22,.01,1.13,.03,2.25,.19,3.3,.66,1.51,.68,2.46,1.74,2.53,3.48,.08,1.87-.75,3.17-2.36,4.04-.26,.14-.53,.25-.9,.43,.42,1.25,1.15,2.3,1.9,3.33,.74,1.01,1.68,1.83,2.72,2.66-2.52,.16-4.06-1.12-6.91-5.66h-3.42Zm.18-7.24v5.54c1.21,0,2.34,.02,3.46,0,.36,0,.72-.11,1.07-.2,1.51-.4,2.42-1.38,2.38-2.55-.04-1.32-1.02-2.3-2.57-2.61-1.41-.28-2.83-.2-4.34-.18Z"/><path d="M148.34,23.72c.81-.03,1.56-.09,2.2,.03v14.34c-.08,.04-.17,.09-.25,.13-3.39-3.33-6.78-6.66-10.28-10.1v9.66c-.7,.11-1.47,.1-2.18,0,.22-4.75,.02-9.46,.13-14.43,3.55,3.47,6.94,6.78,10.56,10.32-.07-3.46,.12-6.65-.16-9.95Z"/><path d="M259.96,38.04c-3.07-.1-5.46-1.37-6.79-4.21-1.28-2.72-.93-5.37,1.03-7.62,2.28-2.63,5.3-3.2,8.54-2.27,3.01,.87,4.67,3.05,5.06,6.14,.51,4.02-2.87,7.75-7.14,7.95-.23,.01-.47,0-.7,0Zm.19-1.73c3.26,0,5.72-2.34,5.68-5.4-.04-3.25-2.4-5.61-5.6-5.62-3.19,0-5.72,2.43-5.74,5.52-.02,3.19,2.36,5.5,5.66,5.5Z"/><path d="M176.86,31.29v4.74c2.6-.06,5.15,.13,7.72-.16,.13,.65,.1,1.26,.03,1.93h-9.97c.12-4.7,.11-9.39,.01-14.16h9.92c.13,.67,.13,1.31,0,1.95-2.59-.31-5.13-.1-7.73-.17v4.1c2.31-.01,4.58,.14,6.9-.14v2.14c-2.29-.4-4.56-.15-6.9-.23Z"/><path d="M87.94,23.7c.76-.03,1.51-.11,2.27,.06-.31,1.88-.13,3.73-.16,5.66h7.56c-.02-1.89,.14-3.73-.2-5.61,.81-.26,1.58-.1,2.25-.11-.11,4.73-.12,9.36,0,14.09-.67,.15-1.47,.07-2.32,.01,.45-2.11,.24-4.18,.25-6.32h-7.52c0,2.11-.16,4.18,.13,6.29-.74,.19-1.49,.04-2.26,.08v-14.14Z"/><path d="M113.14,23.64c.03,.72,.1,1.34-.05,1.96-2.61-.33-5.19-.09-7.82-.18v4.1c2.29-.02,4.56,.13,6.87-.13,.15,.65,.1,1.33,.02,2.08-2.29-.31-4.53-.12-6.86-.18v4.73c2.57-.06,5.16,.13,7.82-.17v1.91h-9.99c.15-4.67,.15-9.36,0-14.12h10.02Z"/><path d="M132.54,23.71h2.23c-.03,1.14-.22,2.25-.19,3.36,.05,1.83,.01,3.65,.01,5.48,0,2.94-1.41,4.76-4.28,5.38-1.71,.37-3.43,.31-5.09-.32-1.94-.73-3.03-2.28-3.05-4.34-.02-2.26-.02-4.52,0-6.77,.01-.9-.09-1.78-.21-2.72,.82-.17,1.6-.15,2.23-.05,0,3.29-.04,6.5,.02,9.72,.02,1.05,.68,1.88,1.63,2.35,1.67,.85,3.39,.86,5.08,.02,.93-.46,1.57-1.24,1.62-2.25,.18-3.25,.13-6.5,.01-9.86Z"/><path d="M200.9,36.89c.19-.81,.52-1.44,.93-2.12,1.53,1.1,3.2,1.63,5.05,1.49,.98-.07,1.91-.28,2.66-.98,1.15-1.07,.9-2.69-.52-3.36-.92-.43-1.93-.47-2.9-.66-.65-.12-1.31-.22-1.95-.39-1.77-.46-2.65-1.42-2.75-2.96-.12-1.8,.73-3.18,2.39-3.84,1.96-.77,3.97-.66,5.97-.21,.65,.15,1.29,.31,1.97,.48-.15,.71-.48,1.3-.86,1.92-1.54-1.03-3.21-1.22-4.97-1.01-.67,.08-1.3,.28-1.82,.72-1.13,.94-.92,2.49,.43,3.05,.96,.4,2,.46,3.01,.63,.65,.12,1.31,.23,1.95,.4,1.44,.38,2.44,1.23,2.66,2.76,.24,1.66-.2,3.12-1.69,4.07-1.77,1.14-3.74,1.31-5.75,.91-1.26-.25-2.49-.6-3.8-.93Z"/><path d="M272.64,25.41v4.1c2.27,0,4.54,.11,6.88-.1,.19,.65,.08,1.36,.05,2.12-2.32-.43-4.6-.14-6.97-.25,.05,2.25-.16,4.36,.18,6.51h-2.32c.1-4.72,.09-9.41,0-14.17h9.96c.28,.64,.14,1.29,.11,1.98-2.62-.35-5.19-.09-7.88-.2Z"/><path d="M165.32,38.39c-2.55-5.01-5.01-9.87-7.51-14.78h2.98c-.02,.45-.15,.89,.06,1.34,1.5,3.07,2.97,6.15,4.54,9.4,1.66-3.63,3.56-6.95,5.02-10.77,.68-.09,1.68-.02,2.72,0-2.77,4.81-5.07,9.8-7.81,14.81Z"/><path d="M238.8,29.61c1.75-1.63,4.08-5.07,4.07-6.01h3.22c-.79,.99-1.52,1.9-2.25,2.81-1.19,1.47-2.36,2.96-3.56,4.41-.38,.46-.56,.94-.54,1.54,.08,1.78-.15,3.58,.24,5.38-.85,.2-1.62,.08-2.41,.1,.32-2.08,.11-4.08,.17-6.06,.02-.53-.35-.84-.63-1.2-1.81-2.29-3.63-4.57-5.51-6.93h3.19c-.11,.41,.04,.79,.31,1.14,1.23,1.6,2.46,3.21,3.69,4.82Z"/><path d="M80.91,37.81h-2.27c.2-4.09,.03-8.15,.1-12.35-1.56-.03-3.02-.13-4.52,.14-.15-.64-.07-1.22-.05-1.87h11.11c.18,.61,.15,1.22,.02,1.86-1.51-.28-3-.14-4.62-.16,.11,4.16-.2,8.22,.22,12.37Z"/><path d="M230.7,25.58c-1.5-.26-2.92-.12-4.43-.16v12.33c-.7,.2-1.47,.04-2.19,.07v-12.36c-1.46-.06-2.9-.1-4.38,.1-.13-.6-.09-1.19-.02-1.83h11.02v1.85Z"/><path d="M214.96,23.71h2.23c-.13,4.69-.12,9.34,0,14.07-.66,.16-1.44,.05-2.23,.05v-14.11Z"/><path d="M156,23.69c-.1,4.78-.11,9.41,0,14.09-.68,.11-1.44,.07-2.15,.02v-14.07c.69-.15,1.44-.05,2.15-.04Z"/><path d="M28.96,59.09c-.04-.85,.19-1.65,.63-2.36,.33-.53,.84-.77,1.44-.63,.62,.14,.76,.63,.77,1.22,0,.77-.07,1.52-.39,2.23-.34,.76-.83,1.35-1.73,1.17-.9-.18-.69-.99-.72-1.63Z"/></svg>